<?xml version="1.0" encoding="utf-8"?>
<!-- Generator: Adobe Illustrator 16.0.0, SVG Export Plug-In . SVG Version: 6.00 Build 0)  -->
<!DOCTYPE svg PUBLIC "-//W3C//DTD SVG 1.1//EN" "http://www.w3.org/Graphics/SVG/1.1/DTD/svg11.dtd">
<svg version="1.1" xmlns="http://www.w3.org/2000/svg" xmlns:xlink="http://www.w3.org/1999/xlink" x="0px" y="0px" width="112px"
	 height="56px" viewBox="0 0 112 56" enable-background="new 0 0 112 56" xml:space="preserve">
<g id="Слой_1">
</g>
<g id="Слой_2">
	<g>
		<g>
			<g>
				<g>
					<linearGradient id="SVGID_1_" gradientUnits="userSpaceOnUse" x1="28.6563" y1="14.0664" x2="28.6562" y2="36.4974">
						<stop  offset="0" style="stop-color:#B7B3B2"/>
						<stop  offset="0.7409" style="stop-color:#DDDADB"/>
						<stop  offset="1" style="stop-color:#EBE9EA"/>
					</linearGradient>
					<path fill="url(#SVGID_1_)" d="M43.567,27.806c0,8.236-6.673,14.908-14.911,14.908c-8.236,0-14.911-6.672-14.911-14.908
						s6.675-14.91,14.911-14.91C36.895,12.896,43.567,19.57,43.567,27.806z"/>
					<radialGradient id="SVGID_2_" cx="28.6563" cy="31.6514" r="10.2338" gradientUnits="userSpaceOnUse">
						<stop  offset="0" style="stop-color:#F0EEEF"/>
						<stop  offset="0.5273" style="stop-color:#F4F3F4"/>
						<stop  offset="0.7688" style="stop-color:#F8F8F8"/>
					</radialGradient>
					<path fill="url(#SVGID_2_)" d="M34.962,27.806c0,3.482-2.815,6.309-6.306,6.309c-3.482,0-6.306-2.826-6.306-6.309
						c0-3.488,2.823-6.313,6.306-6.313C32.146,21.494,34.962,24.318,34.962,27.806z"/>
					<linearGradient id="SVGID_3_" gradientUnits="userSpaceOnUse" x1="28.6592" y1="19.1953" x2="28.6592" y2="35.5589">
						<stop  offset="0" style="stop-color:#A9A6A4"/>
						<stop  offset="1" style="stop-color:#BBB8B6"/>
					</linearGradient>
					<path fill="url(#SVGID_3_)" d="M28.656,21.494c3.49,0,6.306,2.824,6.306,6.313c0,3.482-2.815,6.309-6.306,6.309
						c-3.482,0-6.306-2.826-6.306-6.309C22.351,24.318,25.174,21.494,28.656,21.494L28.656,21.494z M28.656,18.07
						c-5.364,0-9.727,4.369-9.727,9.736c0,5.361,4.362,9.732,9.727,9.732c5.369,0,9.732-4.371,9.732-9.732
						C38.389,22.439,34.025,18.07,28.656,18.07L28.656,18.07z"/>
					<linearGradient id="SVGID_4_" gradientUnits="userSpaceOnUse" x1="28.6577" y1="40.3101" x2="28.6577" y2="12.2782">
						<stop  offset="0" style="stop-color:#2B2525"/>
						<stop  offset="0.6667" style="stop-color:#211B1B"/>
					</linearGradient>
					<path fill="url(#SVGID_4_)" d="M28.656,12.896c8.23,0,14.906,6.674,14.906,14.91s-6.676,14.908-14.906,14.908
						c-8.236,0-14.911-6.672-14.911-14.908S20.42,12.896,28.656,12.896L28.656,12.896z M28.656,9.146
						C18.364,9.146,10,17.513,10,27.806c0,10.291,8.364,18.656,18.656,18.656c10.294,0,18.659-8.365,18.659-18.656
						C47.315,17.513,38.95,9.146,28.656,9.146L28.656,9.146z"/>
				</g>
				<g>
					<g>
						<linearGradient id="SVGID_5_" gradientUnits="userSpaceOnUse" x1="28.6616" y1="17.1851" x2="28.6616" y2="39.2449">
							<stop  offset="0" style="stop-color:#211B1B"/>
							<stop  offset="1" style="stop-color:#3F3737"/>
						</linearGradient>
						<path fill="url(#SVGID_5_)" d="M42.446,27.427c0,7.619-6.181,13.785-13.79,13.785s-13.779-6.166-13.779-13.785
							c0-7.609,6.17-13.775,13.779-13.775S42.446,19.818,42.446,27.427z"/>
						<linearGradient id="SVGID_6_" gradientUnits="userSpaceOnUse" x1="28.6563" y1="12.1431" x2="28.6562" y2="42.7532">
							<stop  offset="0" style="stop-color:#2A241E"/>
							<stop  offset="1" style="stop-color:#6D6563"/>
						</linearGradient>
						<path fill="url(#SVGID_6_)" d="M28.656,13.652c7.609,0,13.79,6.166,13.79,13.775c0,7.619-6.181,13.785-13.79,13.785
							s-13.779-6.166-13.779-13.785C14.877,19.818,21.047,13.652,28.656,13.652L28.656,13.652z M28.656,12.033
							c-8.482,0-15.394,6.914-15.394,15.395c0,8.494,6.911,15.4,15.394,15.4c8.49,0,15.394-6.906,15.394-15.4
							C44.05,18.947,37.146,12.033,28.656,12.033L28.656,12.033z"/>
						<radialGradient id="SVGID_7_" cx="28.6616" cy="27.4302" r="9.3279" gradientUnits="userSpaceOnUse">
							<stop  offset="0" style="stop-color:#BDB9B7"/>
							<stop  offset="0.1787" style="stop-color:#A7A3A0"/>
							<stop  offset="0.4677" style="stop-color:#7C7772"/>
							<stop  offset="0.6077" style="stop-color:#7A7570"/>
							<stop  offset="0.6898" style="stop-color:#716D68"/>
							<stop  offset="0.757" style="stop-color:#63605B"/>
							<stop  offset="0.8161" style="stop-color:#4F4D48"/>
							<stop  offset="0.8694" style="stop-color:#353530"/>
							<stop  offset="0.8871" style="stop-color:#2B2B26"/>
						</radialGradient>
						<path fill="url(#SVGID_7_)" d="M37.992,27.427c0,5.158-4.184,9.328-9.336,9.328s-9.325-4.17-9.325-9.328
							c0-5.152,4.173-9.322,9.325-9.322S37.992,22.275,37.992,27.427z"/>
						<linearGradient id="SVGID_8_" gradientUnits="userSpaceOnUse" x1="28.6523" y1="16.3755" x2="28.6523" y2="37.94">
							<stop  offset="0" style="stop-color:#1F1A14"/>
							<stop  offset="1" style="stop-color:#7B7A7A"/>
						</linearGradient>
						<path fill="url(#SVGID_8_)" d="M28.656,18.105c5.152,0,9.336,4.17,9.336,9.322c0,5.158-4.184,9.328-9.336,9.328
							s-9.325-4.17-9.325-9.328C19.331,22.275,23.504,18.105,28.656,18.105L28.656,18.105z M28.656,16.492
							c-6.033,0-10.944,4.902-10.944,10.936c0,6.031,4.911,10.939,10.944,10.939c6.025,0,10.937-4.908,10.937-10.939
							C39.593,21.394,34.682,16.492,28.656,16.492L28.656,16.492z"/>
					</g>
				</g>
			</g>
			<defs>
				<filter id="Adobe_OpacityMaskFilter" filterUnits="userSpaceOnUse" x="15.398" y="13.646" width="25.201" height="19.525">
					<feColorMatrix  type="matrix" values="1 0 0 0 0  0 1 0 0 0  0 0 1 0 0  0 0 0 1 0"/>
				</filter>
			</defs>
			<mask maskUnits="userSpaceOnUse" x="15.398" y="13.646" width="25.201" height="19.525" id="SVGID_9_">
				<g filter="url(#Adobe_OpacityMaskFilter)">
					
						<linearGradient id="SVGID_10_" gradientUnits="userSpaceOnUse" x1="27.7393" y1="-333.2197" x2="21.4375" y2="-346.6788" gradientTransform="matrix(0.9929 -0.119 0.119 0.9929 41.7198 362.5099)">
						<stop  offset="0" style="stop-color:#FFFFFF"/>
						<stop  offset="1" style="stop-color:#A8A8A8"/>
					</linearGradient>
					<path fill="url(#SVGID_10_)" d="M16.933,33.171c-0.509-0.957-0.899-1.982-1.159-3.066c-0.12-0.506-0.211-1.023-0.278-1.553
						c-0.878-7.297,4.336-13.934,11.638-14.811c5.18-0.617,10.011,1.813,12.698,5.871c0.284,0.428,0.538,0.859,0.769,1.311
						C34.302,27.171,25.407,31.435,16.933,33.171z"/>
				</g>
			</mask>
			<path opacity="0.3" mask="url(#SVGID_9_)" fill="#FFFFFF" d="M16.933,33.171c-0.509-0.957-0.899-1.982-1.159-3.066
				c-0.12-0.506-0.211-1.023-0.278-1.553c-0.878-7.297,4.336-13.934,11.638-14.811c5.18-0.617,10.011,1.813,12.698,5.871
				c0.284,0.428,0.538,0.859,0.769,1.311C35.011,26.023,28.124,29.787,16.933,33.171z"/>
		</g>
		<g>
			<defs>
				<filter id="Adobe_OpacityMaskFilter_1_" filterUnits="userSpaceOnUse" x="55.847" y="0.5" width="54.799" height="54.796">
					<feColorMatrix  type="matrix" values="1 0 0 0 0  0 1 0 0 0  0 0 1 0 0  0 0 0 1 0"/>
				</filter>
			</defs>
			<mask maskUnits="userSpaceOnUse" x="55.847" y="0.5" width="54.799" height="54.796" id="SVGID_11_">
				<g filter="url(#Adobe_OpacityMaskFilter_1_)">
					<radialGradient id="SVGID_12_" cx="83.2461" cy="27.8984" r="27.3987" gradientUnits="userSpaceOnUse">
						<stop  offset="0.3011" style="stop-color:#FFFFFF"/>
						<stop  offset="0.4449" style="stop-color:#BEBEBE"/>
						<stop  offset="0.5886" style="stop-color:#858584"/>
						<stop  offset="0.7201" style="stop-color:#585856"/>
						<stop  offset="0.8367" style="stop-color:#383836"/>
						<stop  offset="0.9339" style="stop-color:#242422"/>
						<stop  offset="1" style="stop-color:#1D1D1B"/>
					</radialGradient>
					<path fill="url(#SVGID_12_)" d="M110.646,27.898c0,15.128-12.265,27.398-27.396,27.398s-27.403-12.27-27.403-27.398
						C55.847,12.77,68.119,0.5,83.25,0.5S110.646,12.77,110.646,27.898z"/>
				</g>
			</mask>
			<path mask="url(#SVGID_11_)" fill="#8FD2EA" d="M110.646,27.898c0,15.128-12.265,27.398-27.396,27.398
				s-27.403-12.27-27.403-27.398C55.847,12.77,68.119,0.5,83.25,0.5S110.646,12.77,110.646,27.898z"/>
			<g>
				<g>
					<g>
						<linearGradient id="SVGID_13_" gradientUnits="userSpaceOnUse" x1="83.2539" y1="14.1587" x2="83.2539" y2="36.5878">
							<stop  offset="0" style="stop-color:#B7B3B2"/>
							<stop  offset="0.7409" style="stop-color:#DDDADB"/>
							<stop  offset="1" style="stop-color:#EBE9EA"/>
						</linearGradient>
						<path fill="url(#SVGID_13_)" d="M98.164,27.898c0,8.232-6.673,14.906-14.911,14.906c-8.236,0-14.909-6.674-14.909-14.906
							c0-8.236,6.673-14.91,14.909-14.91C91.491,12.988,98.164,19.662,98.164,27.898z"/>
						<radialGradient id="SVGID_14_" cx="83.251" cy="31.7417" r="10.2362" gradientUnits="userSpaceOnUse">
							<stop  offset="0" style="stop-color:#F0EEEF"/>
							<stop  offset="0.5273" style="stop-color:#F4F3F4"/>
							<stop  offset="0.7688" style="stop-color:#F8F8F8"/>
						</radialGradient>
						<path fill="url(#SVGID_14_)" d="M89.559,27.898c0,3.478-2.818,6.306-6.306,6.306c-3.482,0-6.31-2.828-6.31-6.306
							c0-3.488,2.827-6.314,6.31-6.314C86.74,21.584,89.559,24.41,89.559,27.898z"/>
						<linearGradient id="SVGID_15_" gradientUnits="userSpaceOnUse" x1="83.2549" y1="19.2896" x2="83.2549" y2="35.6478">
							<stop  offset="0" style="stop-color:#A9A6A4"/>
							<stop  offset="1" style="stop-color:#BBB8B6"/>
						</linearGradient>
						<path fill="url(#SVGID_15_)" d="M83.253,21.584c3.487,0,6.306,2.826,6.306,6.314c0,3.478-2.818,6.306-6.306,6.306
							c-3.482,0-6.31-2.828-6.31-6.306C76.943,24.41,79.771,21.584,83.253,21.584L83.253,21.584z M83.253,18.164
							c-5.367,0-9.728,4.365-9.728,9.734c0,5.361,4.36,9.728,9.728,9.728c5.366,0,9.731-4.367,9.731-9.728
							C92.984,22.529,88.619,18.164,83.253,18.164L83.253,18.164z"/>
						<linearGradient id="SVGID_16_" gradientUnits="userSpaceOnUse" x1="79.7666" y1="15.8823" x2="87.5777" y2="42.8054">
							<stop  offset="0" style="stop-color:#211B1B"/>
							<stop  offset="1" style="stop-color:#5E5656"/>
						</linearGradient>
						<path fill="url(#SVGID_16_)" d="M83.253,12.988c8.23,0,14.906,6.674,14.906,14.91c0,8.232-6.676,14.906-14.906,14.906
							c-8.236,0-14.909-6.674-14.909-14.906C68.344,19.662,75.017,12.988,83.253,12.988L83.253,12.988z M83.253,9.236
							c-10.292,0-18.659,8.369-18.659,18.662c0,10.285,8.367,18.652,18.659,18.652c10.291,0,18.658-8.367,18.658-18.652
							C101.911,17.605,93.544,9.236,83.253,9.236L83.253,9.236z"/>
					</g>
					<g>
						<g>
							<linearGradient id="SVGID_17_" gradientUnits="userSpaceOnUse" x1="83.2554" y1="17.272" x2="83.2554" y2="39.3346">
								<stop  offset="0" style="stop-color:#7CC0E9"/>
								<stop  offset="1" style="stop-color:#8DC4E0"/>
							</linearGradient>
							<circle fill="url(#SVGID_17_)" cx="83.255" cy="27.521" r="13.785"/>
							<linearGradient id="SVGID_18_" gradientUnits="userSpaceOnUse" x1="83.2524" y1="12.2354" x2="83.2524" y2="42.8392">
								<stop  offset="0.0054" style="stop-color:#465F6D"/>
								<stop  offset="1" style="stop-color:#467793"/>
							</linearGradient>
							<path fill="url(#SVGID_18_)" d="M83.253,13.738c7.614,0,13.787,6.17,13.787,13.783c0,7.611-6.173,13.781-13.787,13.781
								c-7.61,0-13.782-6.17-13.782-13.781C69.471,19.908,75.643,13.738,83.253,13.738L83.253,13.738z M83.253,12.125
								c-8.485,0-15.394,6.914-15.394,15.396c0,8.49,6.908,15.392,15.394,15.392c8.487,0,15.393-6.902,15.393-15.392
								C98.646,19.039,91.74,12.125,83.253,12.125L83.253,12.125z"/>
							<radialGradient id="SVGID_19_" cx="83.2539" cy="27.5225" r="9.3279" gradientUnits="userSpaceOnUse">
								<stop  offset="0" style="stop-color:#FFFFFF"/>
								<stop  offset="0.135" style="stop-color:#FFFFFF"/>
								<stop  offset="0.1398" style="stop-color:#FFFFFF"/>
								<stop  offset="0.1556" style="stop-color:#FBFDFF"/>
								<stop  offset="0.1703" style="stop-color:#F0F9FE"/>
								<stop  offset="0.1847" style="stop-color:#DDF1FC"/>
								<stop  offset="0.1988" style="stop-color:#C3E6FA"/>
								<stop  offset="0.2043" style="stop-color:#B6E1F9"/>
								<stop  offset="0.2923" style="stop-color:#B2DEF7"/>
								<stop  offset="0.3793" style="stop-color:#A6D5F2"/>
								<stop  offset="0.466" style="stop-color:#92C7EA"/>
								<stop  offset="0.5524" style="stop-color:#76B2DE"/>
								<stop  offset="0.6387" style="stop-color:#5398CE"/>
								<stop  offset="0.7238" style="stop-color:#2778BB"/>
								<stop  offset="0.7419" style="stop-color:#1D70B7"/>
								<stop  offset="1" style="stop-color:#1DBBEE"/>
							</radialGradient>
							<path fill="url(#SVGID_19_)" d="M92.583,27.521c0,5.154-4.178,9.328-9.33,9.328c-5.15,0-9.328-4.174-9.328-9.328
								c0-5.156,4.178-9.326,9.328-9.326C88.405,18.195,92.583,22.365,92.583,27.521z"/>
							<linearGradient id="SVGID_20_" gradientUnits="userSpaceOnUse" x1="83.25" y1="16.4678" x2="83.25" y2="38.0337">
								<stop  offset="0" style="stop-color:#5496C1"/>
								<stop  offset="1" style="stop-color:#649FBA"/>
							</linearGradient>
							<path fill="url(#SVGID_20_)" d="M83.253,18.195c5.152,0,9.33,4.17,9.33,9.326c0,5.154-4.178,9.328-9.33,9.328
								c-5.15,0-9.328-4.174-9.328-9.328C73.925,22.365,78.103,18.195,83.253,18.195L83.253,18.195z M83.253,16.584
								c-6.033,0-10.945,4.904-10.945,10.938c0,6.027,4.912,10.939,10.945,10.939c6.024,0,10.939-4.912,10.939-10.939
								C94.192,21.488,89.277,16.584,83.253,16.584L83.253,16.584z"/>
						</g>
					</g>
				</g>
				<defs>
					<filter id="Adobe_OpacityMaskFilter_2_" filterUnits="userSpaceOnUse" x="69.156" y="13.694" width="27.177" height="21.056">
						<feColorMatrix  type="matrix" values="1 0 0 0 0  0 1 0 0 0  0 0 1 0 0  0 0 0 1 0"/>
					</filter>
				</defs>
				<mask maskUnits="userSpaceOnUse" x="69.156" y="13.694" width="27.177" height="21.056" id="SVGID_21_">
					<g filter="url(#Adobe_OpacityMaskFilter_2_)">
						
							<linearGradient id="SVGID_22_" gradientUnits="userSpaceOnUse" x1="82.0752" y1="-325.4976" x2="75.2798" y2="-340.0109" gradientTransform="matrix(0.9929 -0.119 0.119 0.9929 41.7198 362.5099)">
							<stop  offset="0" style="stop-color:#FFFFFF"/>
							<stop  offset="1" style="stop-color:#A8A8A8"/>
						</linearGradient>
						<path fill="url(#SVGID_22_)" d="M70.804,34.75c-0.544-1.033-0.964-2.139-1.245-3.309c-0.128-0.543-0.229-1.1-0.3-1.67
							c-0.939-7.876,4.676-15.029,12.554-15.974c5.581-0.666,10.795,1.951,13.693,6.336c0.306,0.455,0.578,0.918,0.827,1.408
							C89.543,28.275,79.949,32.878,70.804,34.75z"/>
					</g>
				</mask>
				<path opacity="0.3" mask="url(#SVGID_21_)" fill="#FFFFFF" d="M70.804,34.75c-0.544-1.033-0.964-2.139-1.245-3.309
					c-0.128-0.543-0.229-1.1-0.3-1.67c-0.939-7.876,4.676-15.029,12.554-15.974c5.581-0.666,10.795,1.951,13.693,6.336
					c0.306,0.455,0.578,0.918,0.827,1.408C90.306,27.041,82.878,31.099,70.804,34.75z"/>
			</g>
		</g>
	</g>
	<g>
		<g>
			<g>
				<g>
					<linearGradient id="SVGID_23_" gradientUnits="userSpaceOnUse" x1="28.6563" y1="14.0664" x2="28.6562" y2="36.4974">
						<stop  offset="0" style="stop-color:#B7B3B2"/>
						<stop  offset="0.7409" style="stop-color:#DDDADB"/>
						<stop  offset="1" style="stop-color:#EBE9EA"/>
					</linearGradient>
					<path fill="url(#SVGID_23_)" d="M43.567,27.806c0,8.236-6.673,14.908-14.911,14.908c-8.236,0-14.911-6.672-14.911-14.908
						s6.675-14.91,14.911-14.91C36.895,12.896,43.567,19.57,43.567,27.806z"/>
					<radialGradient id="SVGID_24_" cx="28.6563" cy="31.6514" r="10.2338" gradientUnits="userSpaceOnUse">
						<stop  offset="0" style="stop-color:#F0EEEF"/>
						<stop  offset="0.5273" style="stop-color:#F4F3F4"/>
						<stop  offset="0.7688" style="stop-color:#F8F8F8"/>
					</radialGradient>
					<path fill="url(#SVGID_24_)" d="M34.962,27.806c0,3.482-2.815,6.309-6.306,6.309c-3.482,0-6.306-2.826-6.306-6.309
						c0-3.488,2.823-6.313,6.306-6.313C32.146,21.494,34.962,24.318,34.962,27.806z"/>
					<linearGradient id="SVGID_25_" gradientUnits="userSpaceOnUse" x1="28.6592" y1="19.1953" x2="28.6592" y2="35.5589">
						<stop  offset="0" style="stop-color:#A9A6A4"/>
						<stop  offset="1" style="stop-color:#BBB8B6"/>
					</linearGradient>
					<path fill="url(#SVGID_25_)" d="M28.656,21.494c3.49,0,6.306,2.824,6.306,6.313c0,3.482-2.815,6.309-6.306,6.309
						c-3.482,0-6.306-2.826-6.306-6.309C22.351,24.318,25.174,21.494,28.656,21.494L28.656,21.494z M28.656,18.07
						c-5.364,0-9.727,4.369-9.727,9.736c0,5.361,4.362,9.732,9.727,9.732c5.369,0,9.732-4.371,9.732-9.732
						C38.389,22.439,34.025,18.07,28.656,18.07L28.656,18.07z"/>
					<linearGradient id="SVGID_26_" gradientUnits="userSpaceOnUse" x1="28.6577" y1="40.3101" x2="28.6577" y2="12.2782">
						<stop  offset="0" style="stop-color:#2B2525"/>
						<stop  offset="0.6667" style="stop-color:#211B1B"/>
					</linearGradient>
					<path fill="url(#SVGID_26_)" d="M28.656,12.896c8.23,0,14.906,6.674,14.906,14.91s-6.676,14.908-14.906,14.908
						c-8.236,0-14.911-6.672-14.911-14.908S20.42,12.896,28.656,12.896L28.656,12.896z M28.656,9.146
						C18.364,9.146,10,17.513,10,27.806c0,10.291,8.364,18.656,18.656,18.656c10.294,0,18.659-8.365,18.659-18.656
						C47.315,17.513,38.95,9.146,28.656,9.146L28.656,9.146z"/>
				</g>
				<g>
					<g>
						<linearGradient id="SVGID_27_" gradientUnits="userSpaceOnUse" x1="28.6616" y1="17.1851" x2="28.6616" y2="39.2449">
							<stop  offset="0" style="stop-color:#211B1B"/>
							<stop  offset="1" style="stop-color:#3F3737"/>
						</linearGradient>
						<path fill="url(#SVGID_27_)" d="M42.446,27.427c0,7.619-6.181,13.785-13.79,13.785s-13.779-6.166-13.779-13.785
							c0-7.609,6.17-13.775,13.779-13.775S42.446,19.818,42.446,27.427z"/>
						<linearGradient id="SVGID_28_" gradientUnits="userSpaceOnUse" x1="28.6563" y1="12.1431" x2="28.6562" y2="42.7532">
							<stop  offset="0" style="stop-color:#2A241E"/>
							<stop  offset="1" style="stop-color:#6D6563"/>
						</linearGradient>
						<path fill="url(#SVGID_28_)" d="M28.656,13.652c7.609,0,13.79,6.166,13.79,13.775c0,7.619-6.181,13.785-13.79,13.785
							s-13.779-6.166-13.779-13.785C14.877,19.818,21.047,13.652,28.656,13.652L28.656,13.652z M28.656,12.033
							c-8.482,0-15.394,6.914-15.394,15.395c0,8.494,6.911,15.4,15.394,15.4c8.49,0,15.394-6.906,15.394-15.4
							C44.05,18.947,37.146,12.033,28.656,12.033L28.656,12.033z"/>
						<radialGradient id="SVGID_29_" cx="28.6616" cy="27.4302" r="9.3279" gradientUnits="userSpaceOnUse">
							<stop  offset="0" style="stop-color:#BDB9B7"/>
							<stop  offset="0.1787" style="stop-color:#A7A3A0"/>
							<stop  offset="0.4677" style="stop-color:#7C7772"/>
							<stop  offset="0.6077" style="stop-color:#7A7570"/>
							<stop  offset="0.6898" style="stop-color:#716D68"/>
							<stop  offset="0.757" style="stop-color:#63605B"/>
							<stop  offset="0.8161" style="stop-color:#4F4D48"/>
							<stop  offset="0.8694" style="stop-color:#353530"/>
							<stop  offset="0.8871" style="stop-color:#2B2B26"/>
						</radialGradient>
						<path fill="url(#SVGID_29_)" d="M37.992,27.427c0,5.158-4.184,9.328-9.336,9.328s-9.325-4.17-9.325-9.328
							c0-5.152,4.173-9.322,9.325-9.322S37.992,22.275,37.992,27.427z"/>
						<linearGradient id="SVGID_30_" gradientUnits="userSpaceOnUse" x1="28.6523" y1="16.3755" x2="28.6523" y2="37.94">
							<stop  offset="0" style="stop-color:#1F1A14"/>
							<stop  offset="1" style="stop-color:#7B7A7A"/>
						</linearGradient>
						<path fill="url(#SVGID_30_)" d="M28.656,18.105c5.152,0,9.336,4.17,9.336,9.322c0,5.158-4.184,9.328-9.336,9.328
							s-9.325-4.17-9.325-9.328C19.331,22.275,23.504,18.105,28.656,18.105L28.656,18.105z M28.656,16.492
							c-6.033,0-10.944,4.902-10.944,10.936c0,6.031,4.911,10.939,10.944,10.939c6.025,0,10.937-4.908,10.937-10.939
							C39.593,21.394,34.682,16.492,28.656,16.492L28.656,16.492z"/>
					</g>
				</g>
			</g>
			<defs>
				<filter id="Adobe_OpacityMaskFilter_3_" filterUnits="userSpaceOnUse" x="15.398" y="13.646" width="25.201" height="19.525">
					<feColorMatrix  type="matrix" values="1 0 0 0 0  0 1 0 0 0  0 0 1 0 0  0 0 0 1 0"/>
				</filter>
			</defs>
			<mask maskUnits="userSpaceOnUse" x="15.398" y="13.646" width="25.201" height="19.525" id="SVGID_31_">
				<g filter="url(#Adobe_OpacityMaskFilter_3_)">
					
						<linearGradient id="SVGID_32_" gradientUnits="userSpaceOnUse" x1="27.7393" y1="-333.2197" x2="21.4375" y2="-346.6788" gradientTransform="matrix(0.9929 -0.119 0.119 0.9929 41.7198 362.5099)">
						<stop  offset="0" style="stop-color:#FFFFFF"/>
						<stop  offset="1" style="stop-color:#A8A8A8"/>
					</linearGradient>
					<path fill="url(#SVGID_32_)" d="M16.933,33.171c-0.509-0.957-0.899-1.982-1.159-3.066c-0.12-0.506-0.211-1.023-0.278-1.553
						c-0.878-7.297,4.336-13.934,11.638-14.811c5.18-0.617,10.011,1.813,12.698,5.871c0.284,0.428,0.538,0.859,0.769,1.311
						C34.302,27.171,25.407,31.435,16.933,33.171z"/>
				</g>
			</mask>
			<path opacity="0.3" mask="url(#SVGID_31_)" fill="#FFFFFF" d="M16.933,33.171c-0.509-0.957-0.899-1.982-1.159-3.066
				c-0.12-0.506-0.211-1.023-0.278-1.553c-0.878-7.297,4.336-13.934,11.638-14.811c5.18-0.617,10.011,1.813,12.698,5.871
				c0.284,0.428,0.538,0.859,0.769,1.311C35.011,26.023,28.124,29.787,16.933,33.171z"/>
		</g>
		<g>
			<defs>
				<filter id="Adobe_OpacityMaskFilter_4_" filterUnits="userSpaceOnUse" x="55.847" y="0.5" width="54.799" height="54.796">
					<feColorMatrix  type="matrix" values="1 0 0 0 0  0 1 0 0 0  0 0 1 0 0  0 0 0 1 0"/>
				</filter>
			</defs>
			<mask maskUnits="userSpaceOnUse" x="55.847" y="0.5" width="54.799" height="54.796" id="SVGID_33_">
				<g filter="url(#Adobe_OpacityMaskFilter_4_)">
					<radialGradient id="SVGID_34_" cx="83.2461" cy="27.8984" r="27.3987" gradientUnits="userSpaceOnUse">
						<stop  offset="0.3011" style="stop-color:#FFFFFF"/>
						<stop  offset="0.4449" style="stop-color:#BEBEBE"/>
						<stop  offset="0.5886" style="stop-color:#858584"/>
						<stop  offset="0.7201" style="stop-color:#585856"/>
						<stop  offset="0.8367" style="stop-color:#383836"/>
						<stop  offset="0.9339" style="stop-color:#242422"/>
						<stop  offset="1" style="stop-color:#1D1D1B"/>
					</radialGradient>
					<path fill="url(#SVGID_34_)" d="M110.646,27.898c0,15.128-12.265,27.398-27.396,27.398s-27.403-12.27-27.403-27.398
						C55.847,12.77,68.119,0.5,83.25,0.5S110.646,12.77,110.646,27.898z"/>
				</g>
			</mask>
			<path mask="url(#SVGID_33_)" fill="#8FD2EA" d="M110.646,27.898c0,15.128-12.265,27.398-27.396,27.398
				s-27.403-12.27-27.403-27.398C55.847,12.77,68.119,0.5,83.25,0.5S110.646,12.77,110.646,27.898z"/>
			<g>
				<g>
					<g>
						<linearGradient id="SVGID_35_" gradientUnits="userSpaceOnUse" x1="83.2539" y1="14.1587" x2="83.2539" y2="36.5878">
							<stop  offset="0" style="stop-color:#B7B3B2"/>
							<stop  offset="0.7409" style="stop-color:#DDDADB"/>
							<stop  offset="1" style="stop-color:#EBE9EA"/>
						</linearGradient>
						<path fill="url(#SVGID_35_)" d="M98.164,27.898c0,8.232-6.673,14.906-14.911,14.906c-8.236,0-14.909-6.674-14.909-14.906
							c0-8.236,6.673-14.91,14.909-14.91C91.491,12.988,98.164,19.662,98.164,27.898z"/>
						<radialGradient id="SVGID_36_" cx="83.251" cy="31.7417" r="10.2362" gradientUnits="userSpaceOnUse">
							<stop  offset="0" style="stop-color:#F0EEEF"/>
							<stop  offset="0.5273" style="stop-color:#F4F3F4"/>
							<stop  offset="0.7688" style="stop-color:#F8F8F8"/>
						</radialGradient>
						<path fill="url(#SVGID_36_)" d="M89.559,27.898c0,3.478-2.818,6.306-6.306,6.306c-3.482,0-6.31-2.828-6.31-6.306
							c0-3.488,2.827-6.314,6.31-6.314C86.74,21.584,89.559,24.41,89.559,27.898z"/>
						<linearGradient id="SVGID_37_" gradientUnits="userSpaceOnUse" x1="83.2549" y1="19.2896" x2="83.2549" y2="35.6478">
							<stop  offset="0" style="stop-color:#A9A6A4"/>
							<stop  offset="1" style="stop-color:#BBB8B6"/>
						</linearGradient>
						<path fill="url(#SVGID_37_)" d="M83.253,21.584c3.487,0,6.306,2.826,6.306,6.314c0,3.478-2.818,6.306-6.306,6.306
							c-3.482,0-6.31-2.828-6.31-6.306C76.943,24.41,79.771,21.584,83.253,21.584L83.253,21.584z M83.253,18.164
							c-5.367,0-9.728,4.365-9.728,9.734c0,5.361,4.36,9.728,9.728,9.728c5.366,0,9.731-4.367,9.731-9.728
							C92.984,22.529,88.619,18.164,83.253,18.164L83.253,18.164z"/>
						<linearGradient id="SVGID_38_" gradientUnits="userSpaceOnUse" x1="79.7666" y1="15.8823" x2="87.5777" y2="42.8054">
							<stop  offset="0" style="stop-color:#211B1B"/>
							<stop  offset="1" style="stop-color:#5E5656"/>
						</linearGradient>
						<path fill="url(#SVGID_38_)" d="M83.253,12.988c8.23,0,14.906,6.674,14.906,14.91c0,8.232-6.676,14.906-14.906,14.906
							c-8.236,0-14.909-6.674-14.909-14.906C68.344,19.662,75.017,12.988,83.253,12.988L83.253,12.988z M83.253,9.236
							c-10.292,0-18.659,8.369-18.659,18.662c0,10.285,8.367,18.652,18.659,18.652c10.291,0,18.658-8.367,18.658-18.652
							C101.911,17.605,93.544,9.236,83.253,9.236L83.253,9.236z"/>
					</g>
					<g>
						<g>
							<linearGradient id="SVGID_39_" gradientUnits="userSpaceOnUse" x1="83.2554" y1="17.272" x2="83.2554" y2="39.3346">
								<stop  offset="0" style="stop-color:#7CC0E9"/>
								<stop  offset="1" style="stop-color:#8DC4E0"/>
							</linearGradient>
							<circle fill="url(#SVGID_39_)" cx="83.255" cy="27.521" r="13.785"/>
							<linearGradient id="SVGID_40_" gradientUnits="userSpaceOnUse" x1="83.2524" y1="12.2354" x2="83.2524" y2="42.8392">
								<stop  offset="0.0054" style="stop-color:#465F6D"/>
								<stop  offset="1" style="stop-color:#467793"/>
							</linearGradient>
							<path fill="url(#SVGID_40_)" d="M83.253,13.738c7.614,0,13.787,6.17,13.787,13.783c0,7.611-6.173,13.781-13.787,13.781
								c-7.61,0-13.782-6.17-13.782-13.781C69.471,19.908,75.643,13.738,83.253,13.738L83.253,13.738z M83.253,12.125
								c-8.485,0-15.394,6.914-15.394,15.396c0,8.49,6.908,15.392,15.394,15.392c8.487,0,15.393-6.902,15.393-15.392
								C98.646,19.039,91.74,12.125,83.253,12.125L83.253,12.125z"/>
							<radialGradient id="SVGID_41_" cx="83.2539" cy="27.5225" r="9.3279" gradientUnits="userSpaceOnUse">
								<stop  offset="0" style="stop-color:#FFFFFF"/>
								<stop  offset="0.135" style="stop-color:#FFFFFF"/>
								<stop  offset="0.1398" style="stop-color:#FFFFFF"/>
								<stop  offset="0.1556" style="stop-color:#FBFDFF"/>
								<stop  offset="0.1703" style="stop-color:#F0F9FE"/>
								<stop  offset="0.1847" style="stop-color:#DDF1FC"/>
								<stop  offset="0.1988" style="stop-color:#C3E6FA"/>
								<stop  offset="0.2043" style="stop-color:#B6E1F9"/>
								<stop  offset="0.2923" style="stop-color:#B2DEF7"/>
								<stop  offset="0.3793" style="stop-color:#A6D5F2"/>
								<stop  offset="0.466" style="stop-color:#92C7EA"/>
								<stop  offset="0.5524" style="stop-color:#76B2DE"/>
								<stop  offset="0.6387" style="stop-color:#5398CE"/>
								<stop  offset="0.7238" style="stop-color:#2778BB"/>
								<stop  offset="0.7419" style="stop-color:#1D70B7"/>
								<stop  offset="1" style="stop-color:#1DBBEE"/>
							</radialGradient>
							<path fill="url(#SVGID_41_)" d="M92.583,27.521c0,5.154-4.178,9.328-9.33,9.328c-5.15,0-9.328-4.174-9.328-9.328
								c0-5.156,4.178-9.326,9.328-9.326C88.405,18.195,92.583,22.365,92.583,27.521z"/>
							<linearGradient id="SVGID_42_" gradientUnits="userSpaceOnUse" x1="83.25" y1="16.4678" x2="83.25" y2="38.0337">
								<stop  offset="0" style="stop-color:#5496C1"/>
								<stop  offset="1" style="stop-color:#649FBA"/>
							</linearGradient>
							<path fill="url(#SVGID_42_)" d="M83.253,18.195c5.152,0,9.33,4.17,9.33,9.326c0,5.154-4.178,9.328-9.33,9.328
								c-5.15,0-9.328-4.174-9.328-9.328C73.925,22.365,78.103,18.195,83.253,18.195L83.253,18.195z M83.253,16.584
								c-6.033,0-10.945,4.904-10.945,10.938c0,6.027,4.912,10.939,10.945,10.939c6.024,0,10.939-4.912,10.939-10.939
								C94.192,21.488,89.277,16.584,83.253,16.584L83.253,16.584z"/>
						</g>
					</g>
				</g>
				<defs>
					<filter id="Adobe_OpacityMaskFilter_5_" filterUnits="userSpaceOnUse" x="69.156" y="13.694" width="27.177" height="21.056">
						<feColorMatrix  type="matrix" values="1 0 0 0 0  0 1 0 0 0  0 0 1 0 0  0 0 0 1 0"/>
					</filter>
				</defs>
				<mask maskUnits="userSpaceOnUse" x="69.156" y="13.694" width="27.177" height="21.056" id="SVGID_43_">
					<g filter="url(#Adobe_OpacityMaskFilter_5_)">
						
							<linearGradient id="SVGID_44_" gradientUnits="userSpaceOnUse" x1="82.0752" y1="-325.4976" x2="75.2798" y2="-340.0109" gradientTransform="matrix(0.9929 -0.119 0.119 0.9929 41.7198 362.5099)">
							<stop  offset="0" style="stop-color:#FFFFFF"/>
							<stop  offset="1" style="stop-color:#A8A8A8"/>
						</linearGradient>
						<path fill="url(#SVGID_44_)" d="M70.804,34.75c-0.544-1.033-0.964-2.139-1.245-3.309c-0.128-0.543-0.229-1.1-0.3-1.67
							c-0.939-7.876,4.676-15.029,12.554-15.974c5.581-0.666,10.795,1.951,13.693,6.336c0.306,0.455,0.578,0.918,0.827,1.408
							C89.543,28.275,79.949,32.878,70.804,34.75z"/>
					</g>
				</mask>
				<path opacity="0.3" mask="url(#SVGID_43_)" fill="#FFFFFF" d="M70.804,34.75c-0.544-1.033-0.964-2.139-1.245-3.309
					c-0.128-0.543-0.229-1.1-0.3-1.67c-0.939-7.876,4.676-15.029,12.554-15.974c5.581-0.666,10.795,1.951,13.693,6.336
					c0.306,0.455,0.578,0.918,0.827,1.408C90.306,27.041,82.878,31.099,70.804,34.75z"/>
			</g>
		</g>
	</g>
</g>
</svg>
