<?xml version="1.0" encoding="utf-8"?>
<!-- Generator: Adobe Illustrator 16.0.0, SVG Export Plug-In . SVG Version: 6.00 Build 0)  -->
<!DOCTYPE svg PUBLIC "-//W3C//DTD SVG 1.1//EN" "http://www.w3.org/Graphics/SVG/1.1/DTD/svg11.dtd">
<svg version="1.1" id="Слой_1" xmlns="http://www.w3.org/2000/svg" xmlns:xlink="http://www.w3.org/1999/xlink" x="0px" y="0px"
	 width="120.40625px" height="211.4814453px" viewBox="0 0 120.40625 211.4814453"
	 enable-background="new 0 0 120.40625 211.4814453" xml:space="preserve">
<path fill-rule="evenodd" clip-rule="evenodd" fill="#D5D6D7" d="M69.1513672,0.3920898
	c11.7050781-1.703125,23.4785156,2.2011719,31.8632813,10.5800781c8.4296875,8.4301758,12.3212891,20.2880859,10.5527344,32.0405273
	l-0.4199219,2.8300781l-0.0195313,0.0703125c-0.0449219,0.7460938-0.3535156,1.5-0.9101563,2.0566406
	c-1.2509766,1.2382813-3.2753906,1.2382813-4.5332031,0c-0.8183594-0.8105469-1.1201172-1.9707031-0.8769531-3.0332031
	l0.4316406-2.8554688c1.4609375-9.7543945-1.7685547-19.5795898-8.7646484-26.5756836
	c-6.9375-6.9697266-16.7041016-10.1987305-26.4189453-8.7919922l-3.1640625,0.453125l-0.0068359-0.0205078
	c-0.9755859,0.1508789-2.0048828-0.1376953-2.7714844-0.8911133c-1.2509766-1.2446289-1.2509766-3.2944336,0-4.5527344
	c0.6552734-0.6347656,1.5068359-0.9428711,2.3447266-0.9291992L69.1513672,0.3920898L69.1513672,0.3920898z M4.0571289,85.0400391
	c-1.0678711-0.1308594-2.1816406,0.2246094-3.0170898,1.0292969c-1.3823242,1.3945313-1.3920898,3.6757813,0,5.0703125
	c0.6879883,0.6757813,1.5722656,1.015625,2.4633789,1.0429688v0.0175781h3.5830078
	c3.4916992,0,7.0776367,0.1113281,10.5566406-0.109375c9.7573242-0.6113281,15.309082-6.5917969,20.0449219-14.0253906H55.434082
	c2.4770508,0,4.1791992,1.0800781,2.9936523,3.7578125c-1.9912109,4.4824219-4.0161133,8.9628906-6.0927734,13.4101563
	l-1.4604492,3.0722656l-0.0458984,0.0664063l-0.0327148,0.0898438c-0.6289063,1.3320313-0.3862305,2.9550781,0.6938477,4.0371094
	c1.409668,1.3886719,3.6953125,1.3886719,5.0712891-0.0078125c0.2944336-0.2753906,0.5307617-0.6210938,0.7070313-0.9746094
	l0.0136719-0.046875l0.0390625-0.0859375l1.4741211-3.0976563c2.1162109-4.4921875,4.1591797-9.0253906,6.1699219-13.5664063
	c3.3876953-7.5527344-1.7226563-13.8007813-9.2885742-13.8007813h-6.4975586l7.0283203-12.171875l0.5043945,1.2050781
	c2.9477539,6.8457031,10.2719727,7.375,14.9282227,2.3457031l10.5859375-11.4179688l-0.0185547-0.0136719
	c1.3486328-1.3945313,1.3369141-3.6289063-0.0458984-4.9980469c-1.3964844-1.3964844-3.6748047-1.3964844-5.0703125,0
	l-0.2421875,0.2617188l-0.0664063,0.0644531L66.5703125,57.2529297c-1.2246094,1.2910156-2.4570313,1.7558594-3.2626953-0.125
	c-1.4931641-3.4726563-2.9863281-7.0019531-4.4013672-10.5058594c4.8476563-0.3867188,8.6533203-4.4296875,8.6533203-9.34375
	c0-5.1855469-4.21875-9.3984375-9.40625-9.3984375c-5.15625,0-9.3745117,4.2128906-9.3745117,9.3984375
	c0,1.7832031,0.5102539,3.4550781,1.3881836,4.8945313l-7.9458008-1.34375
	c-11.4047852-1.8867188-15.2231445,7.3183594-19.9663086,15.5722656l-0.0429688,0.0664063v0.0175781
	c-0.8515625,1.3769531-0.7075195,3.2246094,0.4980469,4.4296875c1.3945313,1.3945313,3.6777344,1.3945313,5.0600586,0
	c0.2163086-0.2226563,0.40625-0.4648438,0.5576172-0.7207031l0.012207,0.0136719
	c1.769043-3.0800781,5.175293-10.1347656,8.2866211-11.8300781c1.362793-0.7421875,2.9150391-0.7089844,4.4223633-0.4726563
	l5.2207031,0.8710938L33.3193359,71.4873047c-2.7514648,4.671875-6.675293,10.6445313-11.6342773,12.5507813
	c-1.4321289,0.5507813-2.9414063,0.7929688-4.5004883,0.9042969c-3.3081055,0.203125-6.7739258,0.0976563-10.0981445,0.0976563
	H4.0571289L4.0571289,85.0400391z M93.703125,44.3740234c-0.1699219,0.9824219,0.1308594,2.0703125,0.8916016,2.8105469
	c1.2373047,1.2578125,3.2744141,1.2578125,4.5390625,0c0.5761719-0.5625,0.8652344-1.296875,0.9296875-2.0234375
	l0.5048828-2.7324219c1.6513672-8.6542969-1.0810547-17.4970703-7.2910156-23.7133789
	c-6.1826172-6.1713867-14.9355469-8.8964844-23.5166016-7.3442383l-2.6923828,0.4858398
	c-0.7275391,0.0458984-1.4814453,0.3730469-2.0576172,0.9428711c-1.2568359,1.2446289-1.2568359,3.2944336,0.0136719,4.546875
	c0.7929688,0.7915039,1.9316406,1.0800781,2.9541016,0.8510742l0.0849609-0.0136719l2.8574219-0.5166016
	c6.484375-1.1865234,13.1396484,0.8837891,17.8242188,5.5605469c4.7353516,4.7363281,6.7792969,11.4448242,5.5605469,18.0014648
	l-0.6152344,3.1445313H93.703125L93.703125,44.3740234z"/>
<g>
	<g>
		<g enable-background="new    ">
			<g enable-background="new    ">
				<defs>
					<path id="SVGID_1_" enable-background="new    " d="M102.4853516,157.1796875
						c-0.5566406-0.4121094-1.1123047-0.8242188-1.6679688-1.2363281c-0.15625-0.1152344-0.2998047-0.2519531-0.4287109-0.4091797
						c-0.6259766-0.7705078-0.7441406-1.8740234-0.3818359-2.8847656l1.6679688,1.2363281
						c-0.3632813,1.0097656-0.2441406,2.1142578,0.3818359,2.8847656
						C102.1845703,156.9277344,102.3291016,157.0644531,102.4853516,157.1796875z"/>
				</defs>
				<clipPath id="SVGID_2_">
					<use xlink:href="#SVGID_1_"  overflow="visible"/>
				</clipPath>
				<g clip-path="url(#SVGID_2_)" enable-background="new    ">
					<path fill="#6F6F70" d="M102.4853516,157.1796875l-1.6679688-1.2363281
						c-0.15625-0.1152344-0.2998047-0.2519531-0.4287109-0.4091797c-0.6259766-0.7705078-0.7441406-1.8740234-0.3818359-2.8847656
						l1.6679688,1.2363281c-0.3632813,1.0097656-0.2441406,2.1142578,0.3818359,2.8847656
						C102.1845703,156.9277344,102.3291016,157.0644531,102.4853516,157.1796875"/>
				</g>
			</g>
			<g>
				<polygon fill="#727373" points="101.6748047,153.8857422 100.0068359,152.6494141 100.7822266,149.9365234 
					102.4501953,151.1728516 				"/>
			</g>
			<g enable-background="new    ">
				<defs>
					<path id="SVGID_3_" enable-background="new    " d="M92.6425781,156.4609375
						c-0.0244141-0.0185547-0.0585938-0.0439453-0.0830078-0.0615234c-0.0146484-0.0107422-1.5478516-1.1308594-1.5849609-1.1748047
						c-0.1630859-0.1210938-0.3134766-0.2666016-0.4453125-0.4355469l1.6669922,1.2363281
						C92.3291016,156.1943359,92.4785156,156.3388672,92.6425781,156.4609375z"/>
				</defs>
				<clipPath id="SVGID_4_">
					<use xlink:href="#SVGID_3_"  overflow="visible"/>
				</clipPath>
				<g clip-path="url(#SVGID_4_)" enable-background="new    ">
					<path fill="#6F6F70" d="M92.6425781,156.4609375l-1.6679688-1.2363281
						c-0.1630859-0.1210938-0.3134766-0.2666016-0.4453125-0.4355469l1.6669922,1.2363281
						C92.3291016,156.1943359,92.4785156,156.3388672,92.6425781,156.4609375"/>
				</g>
			</g>
			<g enable-background="new    ">
				<defs>
					<path id="SVGID_5_" enable-background="new    " d="M92.1962891,156.0253906l-1.6669922-1.2363281
						c-0.5878906-0.7021484-0.7070313-1.7373047-0.4208984-2.6699219l1.6679688,1.2353516
						C91.4902344,154.2871094,91.609375,155.3232422,92.1962891,156.0253906z"/>
				</defs>
				<clipPath id="SVGID_6_">
					<use xlink:href="#SVGID_5_"  overflow="visible"/>
				</clipPath>
				<g clip-path="url(#SVGID_6_)" enable-background="new    ">
					<path fill="#6F6F70" d="M92.1962891,156.0253906l-1.6669922-1.2363281
						c-0.5878906-0.7021484-0.7070313-1.7373047-0.4208984-2.6699219l1.6679688,1.2353516
						C91.4902344,154.2871094,91.609375,155.3232422,92.1962891,156.0253906"/>
				</g>
			</g>
			<g>
				<polygon fill="#747475" points="91.7763672,153.3544922 90.1083984,152.1191406 91.0761719,149.1308594 92.7431641,150.3671875 
									"/>
			</g>
			<g enable-background="new    ">
				<defs>
					<path id="SVGID_7_" enable-background="new    " d="M46.4370117,209.0917969
						c-0.0249023-0.0185547-0.0581055-0.0429688-0.0834961-0.0615234c-0.527832-0.3916016-1.0556641-0.7832031-1.5839844-1.1738281
						c-0.175293-0.1298828-0.3364258-0.2832031-0.4804688-0.4599609c-0.8242188-1.0273438-0.8232422-2.5683594-0.0766602-3.8349609
						l1.6674805,1.2363281c-0.746582,1.2666016-0.7475586,2.8076172,0.0766602,3.8349609
						C46.1005859,208.8095703,46.262207,208.9619141,46.4370117,209.0917969z"/>
				</defs>
				<clipPath id="SVGID_8_">
					<use xlink:href="#SVGID_7_"  overflow="visible"/>
				</clipPath>
				<g clip-path="url(#SVGID_8_)" enable-background="new    ">
					<path fill="#6F6F70" d="M46.4370117,209.0917969l-1.6674805-1.2353516
						c-0.175293-0.1298828-0.3364258-0.2832031-0.4804688-0.4599609c-0.7275391-0.9072266-0.8120117-2.2138672-0.3085938-3.3789063
						l1.6674805,1.2363281c-0.503418,1.1650391-0.418457,2.4716797,0.3085938,3.3789063
						C46.1005859,208.8095703,46.262207,208.9619141,46.4370117,209.0917969"/>
					<path fill="#737474" d="M45.6479492,205.2539063l-1.6674805-1.2363281
						c0.0668945-0.1552734,0.144043-0.3076172,0.2319336-0.4560547l1.6674805,1.2363281
						C45.7924805,204.9462891,45.7148438,205.0986328,45.6479492,205.2539063"/>
				</g>
			</g>
			<g>
				<polygon fill="#7E7F7F" points="45.8798828,204.7978516 44.2124023,203.5615234 46.0332031,200.4882813 47.7011719,201.7246094 
									"/>
			</g>
			<g enable-background="new    ">
				<defs>
					<path id="SVGID_9_" enable-background="new    " d="M53.300293,184.6894531l1.6679688,1.2363281
						c0.7319336,0.5419922,0.8803711,1.5224609,0.0253906,3.0458984c-2.3945313,4.2617188-4.8217773,8.5244141-7.2924805,12.7529297
						l-1.6679688-1.2363281c2.4711914-4.2275391,4.8984375-8.4912109,7.2929688-12.7529297
						C54.1806641,186.2119141,54.0322266,185.2324219,53.300293,184.6894531z"/>
				</defs>
				<clipPath id="SVGID_10_">
					<use xlink:href="#SVGID_9_"  overflow="visible"/>
				</clipPath>
				<g clip-path="url(#SVGID_10_)" enable-background="new    ">
					<path fill="#737474" d="M47.7011719,201.7246094l-1.6679688-1.2363281
						c2.4711914-4.2275391,4.8984375-8.4912109,7.2929688-12.7529297c0.1123047-0.2011719,0.2080078-0.3925781,0.2866211-0.5742188
						l1.6674805,1.2353516c-0.0786133,0.1826172-0.1738281,0.3740234-0.2866211,0.5751953
						C52.5991211,193.2333984,50.171875,197.4960938,47.7011719,201.7246094"/>
					<path fill="#6F6F70" d="M55.2802734,188.3964844l-1.6674805-1.2353516
						c0.5185547-1.2001953,0.3227539-2.0009766-0.3125-2.4716797l1.6679688,1.2363281
						C55.6035156,186.3964844,55.7993164,187.1972656,55.2802734,188.3964844"/>
				</g>
			</g>
			<g enable-background="new    ">
				<defs>
					<path id="SVGID_11_" enable-background="new    " d="M79.0419922,153.0712891l1.6679688,1.2353516
						c-0.4736328-0.3505859-1.0488281-0.5263672-1.6494141-0.5263672c-0.8261719,0-1.6982422,0.3320313-2.4189453,0.9960938
						l-1.6679688-1.2363281c0.7207031-0.6640625,1.59375-0.9960938,2.4189453-0.9960938
						C77.9931641,152.5439453,78.5683594,152.7197266,79.0419922,153.0712891z"/>
				</defs>
				<clipPath id="SVGID_12_">
					<use xlink:href="#SVGID_11_"  overflow="visible"/>
				</clipPath>
				<g clip-path="url(#SVGID_12_)" enable-background="new    ">
					<polyline fill="#808081" points="76.6416016,154.7763672 74.9736328,153.5400391 74.9863281,153.5283203 
						76.6542969,154.7646484 76.6416016,154.7763672 					"/>
					<path fill="#848585" d="M76.6542969,154.7646484l-1.6679688-1.2363281c0.0976563-0.0898438,0.1982422-0.1728516,0.3017578-0.25
						l1.6679688,1.2363281C76.8525391,154.5917969,76.7519531,154.6748047,76.6542969,154.7646484"/>
					<path fill="#88898A" d="M76.9560547,154.5146484l-1.6679688-1.2363281
						c0.1113281-0.0839844,0.2265625-0.1601563,0.3427734-0.2304688l1.6679688,1.2363281
						C77.1816406,154.3535156,77.0673828,154.4306641,76.9560547,154.5146484"/>
					<path fill="#8D8D8E" d="M77.2988281,154.2841797l-1.6679688-1.2363281
						c0.1386719-0.0830078,0.28125-0.1552734,0.4248047-0.2177734l1.6679688,1.2363281
						C77.5791016,154.1289063,77.4375,154.2011719,77.2988281,154.2841797"/>
					<path fill="#919292" d="M77.7236328,154.0664063l-1.6679688-1.2363281
						c0.2236328-0.0966797,0.4521484-0.1689453,0.6806641-0.2167969l1.6669922,1.2353516
						C78.1748047,153.8964844,77.9472656,153.96875,77.7236328,154.0664063"/>
					<path fill="#959697" d="M78.4033203,153.8486328l-1.6669922-1.2353516
						c0.2197266-0.0458984,0.4394531-0.0693359,0.65625-0.0693359c0.1376953,0,0.2744141,0.0097656,0.4082031,0.0283203
						l1.6679688,1.2353516c-0.1337891-0.0175781-0.2705078-0.0273438-0.4082031-0.0273438
						C78.84375,153.7802734,78.6230469,153.8037109,78.4033203,153.8486328"/>
					<path fill="#919292" d="M79.46875,153.8076172l-1.6679688-1.2353516c0.2216797,0.0302734,0.4375,0.0859375,0.6425781,0.1669922
						l1.6679688,1.2363281C79.90625,153.8945313,79.6904297,153.8388672,79.46875,153.8076172"/>
					<path fill="#8D8D8E" d="M80.1113281,153.9755859l-1.6679688-1.2363281
						c0.1318359,0.0517578,0.2597656,0.1142578,0.3818359,0.1875l1.6679688,1.2353516
						C80.3701172,154.0898438,80.2431641,154.0273438,80.1113281,153.9755859"/>
					<path fill="#88898A" d="M80.4931641,154.1621094l-1.6679688-1.2353516
						c0.0742188,0.0439453,0.1464844,0.0917969,0.2167969,0.1445313l1.6679688,1.2353516
						C80.6396484,154.2548828,80.5673828,154.2070313,80.4931641,154.1621094"/>
				</g>
			</g>
			<g>
				<polygon fill="#8D8D8E" points="76.3144531,155.0830078 74.6474609,153.8476563 74.9736328,153.5400391 76.6416016,154.7763672 
									"/>
			</g>
			<g>
				<polygon fill="#8C8C8D" points="65.6435547,165.6035156 63.9755859,164.3671875 74.6474609,153.8476563 76.3144531,155.0830078 
									"/>
			</g>
			<g enable-background="new    ">
				<defs>
					<path id="SVGID_13_" enable-background="new    " d="M63.2978516,166.5126953l-1.6679688-1.2363281
						c0.1523438,0.1123047,0.3212891,0.1640625,0.5039063,0.1640625c0.5273438,0,1.1708984-0.4287109,1.8417969-1.0732422
						l1.6679688,1.2363281c-0.671875,0.6445313-1.3144531,1.0732422-1.8417969,1.0732422
						C63.6181641,166.6767578,63.4492188,166.625,63.2978516,166.5126953z"/>
				</defs>
				<clipPath id="SVGID_14_">
					<use xlink:href="#SVGID_13_"  overflow="visible"/>
				</clipPath>
				<g clip-path="url(#SVGID_14_)" enable-background="new    ">
					<path fill="#88898A" d="M63.2978516,166.5126953l-1.6679688-1.2363281
						c0.0244141,0.0175781,0.0488281,0.0332031,0.0732422,0.0488281l1.6679688,1.2353516
						C63.3457031,166.5458984,63.3212891,166.5302734,63.2978516,166.5126953"/>
					<path fill="#8D8D8E" d="M63.3710938,166.5605469l-1.6679688-1.2353516
						c0.0380859,0.0224609,0.078125,0.0419922,0.1191406,0.0576172l1.6669922,1.2363281
						C63.4492188,166.6035156,63.4091797,166.5839844,63.3710938,166.5605469"/>
					<path fill="#919292" d="M63.4892578,166.6191406l-1.6669922-1.2363281
						c0.0605469,0.0244141,0.1240234,0.0410156,0.1894531,0.0498047l1.6679688,1.2353516
						C63.6142578,166.6591797,63.5507813,166.6435547,63.4892578,166.6191406"/>
					<path fill="#959697" d="M63.6796875,166.6679688l-1.6679688-1.2353516
						c0.0400391,0.0048828,0.0810547,0.0078125,0.1220703,0.0078125c0.0742188,0,0.1503906-0.0087891,0.2285156-0.0244141
						l1.6679688,1.2353516c-0.078125,0.0166016-0.1542969,0.0253906-0.2285156,0.0253906
						C63.7607422,166.6767578,63.7197266,166.6738281,63.6796875,166.6679688"/>
					<path fill="#919292" d="M64.0302734,166.6513672l-1.6679688-1.2353516
						c0.1044922-0.0224609,0.2128906-0.0576172,0.3251953-0.1064453l1.6669922,1.2363281
						C64.2431641,166.59375,64.1347656,166.6298828,64.0302734,166.6513672"/>
					<path fill="#8D8D8E" d="M64.3544922,166.5458984L62.6875,165.3095703
						c0.0966797-0.0419922,0.1962891-0.09375,0.2978516-0.1542969l1.6679688,1.2353516
						C64.5517578,166.4511719,64.4521484,166.5029297,64.3544922,166.5458984"/>
					<path fill="#88898A" d="M64.6533203,166.390625l-1.6679688-1.2353516
						c0.1152344-0.0693359,0.2333984-0.1494141,0.3535156-0.2392578l1.6679688,1.2363281
						C64.8867188,166.2421875,64.7685547,166.3222656,64.6533203,166.390625"/>
					<path fill="#848585" d="M65.0068359,166.1523438l-1.6679688-1.2363281c0.1552734-0.1171875,0.3144531-0.25,0.4746094-0.3964844
						l1.6679688,1.2353516C65.3203125,165.9023438,65.1621094,166.0351563,65.0068359,166.1523438"/>
					<path fill="#808081" d="M65.4814453,165.7548828l-1.6679688-1.2353516
						c0.0537109-0.0498047,0.1074219-0.0996094,0.1621094-0.1523438l1.6679688,1.2363281
						C65.5888672,165.6552734,65.5351563,165.7060547,65.4814453,165.7548828"/>
				</g>
			</g>
			<g enable-background="new    ">
				<defs>
					<path id="SVGID_15_" enable-background="new    " d="M57.6865234,178.9755859l1.6679688,1.2353516
						c-1.3867188-1.0273438-3.2216797-1.6142578-5.3583984-1.6142578l-1.6674805-1.2353516
						C54.465332,177.3613281,56.300293,177.9482422,57.6865234,178.9755859z"/>
				</defs>
				<clipPath id="SVGID_16_">
					<use xlink:href="#SVGID_15_"  overflow="visible"/>
				</clipPath>
				<g clip-path="url(#SVGID_16_)" enable-background="new    ">
					<path fill="#959697" d="M53.9960938,178.5966797l-1.6674805-1.2353516c0.4936523,0,0.9707031,0.03125,1.4301758,0.0917969
						l1.6679688,1.2363281C54.9672852,178.6279297,54.4897461,178.5966797,53.9960938,178.5966797"/>
					<path fill="#919292" d="M55.4267578,178.6894531l-1.6679688-1.2363281
						c0.7739258,0.1025391,1.4970703,0.2880859,2.1601563,0.5498047l1.6679688,1.2353516
						C56.9233398,178.9775391,56.2001953,178.7919922,55.4267578,178.6894531"/>
					<path fill="#8D8D8E" d="M57.5869141,179.2382813l-1.6679688-1.2353516
						c0.4033203,0.1582031,0.784668,0.3447266,1.1420898,0.5566406l1.6674805,1.2363281
						C58.3710938,179.5839844,57.9902344,179.3974609,57.5869141,179.2382813"/>
					<path fill="#88898A" d="M58.7285156,179.7958984l-1.6674805-1.2363281
						c0.2172852,0.1289063,0.4262695,0.2675781,0.6254883,0.4160156l1.6679688,1.2353516
						C59.1552734,180.0634766,58.9462891,179.9248047,58.7285156,179.7958984"/>
				</g>
			</g>
			<g enable-background="new    ">
				<defs>
					<path id="SVGID_17_" enable-background="new    " d="M85.7880859,129.3798828
						c0.5566406,0.4121094,1.1123047,0.8251953,1.6679688,1.2363281c1.0029297,0.7441406,1.9199219,1.6210938,2.7285156,2.6240234
						c3.6123047,4.5107422,4.5400391,10.8876953,2.5585938,17.1269531l-1.6669922-1.2363281
						c1.9814453-6.2392578,1.0537109-12.6162109-2.5595703-17.1269531
						C87.7080078,131.0009766,86.7919922,130.1240234,85.7880859,129.3798828z"/>
				</defs>
				<clipPath id="SVGID_18_">
					<use xlink:href="#SVGID_17_"  overflow="visible"/>
				</clipPath>
				<g clip-path="url(#SVGID_18_)" enable-background="new    ">
					<path fill="#6F6F70" d="M92.7431641,150.3671875l-1.6669922-1.2363281
						c1.9814453-6.2392578,1.0537109-12.6162109-2.5595703-17.1269531
						c-0.8085938-1.0029297-1.7246094-1.8798828-2.7285156-2.6240234l1.6679688,1.2363281
						c1.0029297,0.7441406,1.9199219,1.6210938,2.7285156,2.6240234
						C93.796875,137.7509766,94.7246094,144.1279297,92.7431641,150.3671875"/>
				</g>
			</g>
			<g enable-background="new    ">
				<defs>
					<path id="SVGID_19_" enable-background="new    " d="M92.2626953,120.5566406
						c0.4453125,0.3300781,0.8896484,0.6591797,1.3349609,0.9892578c0.1113281,0.0820313,0.2216797,0.1650391,0.3330078,0.2470703
						c1.5654297,1.1601563,2.9921875,2.5322266,4.2480469,4.1035156c5.3369141,6.6591797,6.9111328,15.9970703,4.2714844,25.2763672
						l-1.6679688-1.2363281c2.6396484-9.2783203,1.0654297-18.6171875-4.2714844-25.2763672
						C95.2558594,123.0888672,93.8291016,121.7167969,92.2626953,120.5566406z"/>
				</defs>
				<clipPath id="SVGID_20_">
					<use xlink:href="#SVGID_19_"  overflow="visible"/>
				</clipPath>
				<g clip-path="url(#SVGID_20_)" enable-background="new    ">
					<path fill="#6F6F70" d="M102.4501953,151.1728516l-1.6679688-1.2363281
						c2.6396484-9.2783203,1.0654297-18.6171875-4.2714844-25.2763672
						c-1.2548828-1.5712891-2.6816406-2.9433594-4.2480469-4.1035156l1.6679688,1.2363281
						c1.5654297,1.1601563,2.9921875,2.5322266,4.2480469,4.1035156
						C103.515625,132.5556641,105.0898438,141.8935547,102.4501953,151.1728516"/>
				</g>
			</g>
			<g enable-background="new    ">
				<defs>
					<path id="SVGID_21_" enable-background="new    " d="M59.0761719,172.4199219l-1.6674805-1.2363281
						c-1.2021484-0.8916016-2.1479492-2.3007813-2.6650391-4.2480469l1.6679688,1.2363281
						C56.9287109,170.1191406,57.8740234,171.5283203,59.0761719,172.4199219z"/>
				</defs>
				<clipPath id="SVGID_22_">
					<use xlink:href="#SVGID_21_"  overflow="visible"/>
				</clipPath>
				<g clip-path="url(#SVGID_22_)" enable-background="new    ">
					<path fill="#6F6F70" d="M59.0761719,172.4199219l-1.6674805-1.2363281
						c-1.2021484-0.8916016-2.1479492-2.3007813-2.6650391-4.2480469l1.6679688,1.2363281
						C56.9287109,170.1191406,57.8740234,171.5283203,59.0761719,172.4199219"/>
				</g>
			</g>
			<g>
				<polygon fill="#9D9E9F" points="48.1557617,178.5966797 46.4882813,177.3613281 52.3286133,177.3613281 53.9960938,178.5966797 
									"/>
			</g>
			<g>
				<polygon fill="#6B6B6C" points="56.4116211,168.171875 54.7436523,166.9355469 54.4541016,165.7880859 56.1220703,167.0244141 
									"/>
			</g>
			<g enable-background="new    ">
				<defs>
					<path id="SVGID_23_" enable-background="new    " d="M89.5859375,124.2373047
						c0.5556641,0.4121094,1.1113281,0.8242188,1.6669922,1.2363281c-3.4482422-2.5556641-7.6738281-3.9121094-12.1982422-3.9121094
						l-1.6669922-1.2363281C81.9121094,120.3251953,86.1376953,121.6816406,89.5859375,124.2373047z"/>
				</defs>
				<clipPath id="SVGID_24_">
					<use xlink:href="#SVGID_23_"  overflow="visible"/>
				</clipPath>
				<g clip-path="url(#SVGID_24_)" enable-background="new    ">
					<path fill="#959697" d="M79.0546875,121.5615234l-1.6669922-1.2363281c1.015625,0,2.0166016,0.0683594,2.9980469,0.2041016
						l1.6669922,1.2353516C81.0722656,121.6298828,80.0712891,121.5615234,79.0546875,121.5615234"/>
					<path fill="#919292" d="M82.0527344,121.7646484l-1.6669922-1.2353516
						c1.6435547,0.2255859,3.2294922,0.6396484,4.7324219,1.2324219l1.6679688,1.2363281
						C85.2832031,122.4052734,83.6962891,121.9912109,82.0527344,121.7646484"/>
					<path fill="#8D8D8E" d="M86.7861328,122.9980469l-1.6679688-1.2363281
						c0.9873047,0.3886719,1.9384766,0.8554688,2.8466797,1.3964844l1.6679688,1.2363281
						C88.7246094,123.8535156,87.7734375,123.3867188,86.7861328,122.9980469"/>
					<path fill="#88898A" d="M89.6328125,124.3945313l-1.6679688-1.2363281
						c0.5566406,0.3320313,1.0976563,0.6923828,1.6210938,1.0791016l1.6669922,1.2363281
						C90.7304688,125.0859375,90.1894531,124.7265625,89.6328125,124.3945313"/>
				</g>
			</g>
			<g>
				<polygon fill="#818283" points="33.824707,179.1455078 32.1572266,177.9091797 46.875,156.3037109 48.5424805,157.5400391 				
					"/>
			</g>
			<g enable-background="new    ">
				<defs>
					<path id="SVGID_25_" enable-background="new    " d="M74.7216797,121.9677734l-1.6679688-1.2363281
						c1.4648438-0.2724609,2.9130859-0.40625,4.3339844-0.40625l1.6669922,1.2363281
						C77.6347656,121.5615234,76.1855469,121.6953125,74.7216797,121.9677734z"/>
				</defs>
				<clipPath id="SVGID_26_">
					<use xlink:href="#SVGID_25_"  overflow="visible"/>
				</clipPath>
				<g clip-path="url(#SVGID_26_)" enable-background="new    ">
					<path fill="#959697" d="M74.7216797,121.9677734l-1.6679688-1.2363281
						c1.4648438-0.2724609,2.9130859-0.40625,4.3339844-0.40625l1.6669922,1.2363281
						C77.6347656,121.5615234,76.1855469,121.6953125,74.7216797,121.9677734"/>
				</g>
			</g>
			<g>
				<polygon fill="#9E9FA0" points="72.2373047,122.4287109 70.5703125,121.1923828 73.0537109,120.7314453 74.7216797,121.9677734 
									"/>
			</g>
			<g enable-background="new    ">
				<defs>
					<path id="SVGID_27_" enable-background="new    " d="M70.0820313,128.0595703l-1.6679688-1.2363281
						c-0.1552734-0.1152344-0.2978516-0.2519531-0.4238281-0.4091797c-0.9716797-1.1894531-0.6933594-3.140625,0.6064453-4.3222656
						c0.5966797-0.5478516,1.3115234-0.8564453,1.9736328-0.8994141l1.6669922,1.2363281
						c-0.6611328,0.0429688-1.3769531,0.3515625-1.9726563,0.8994141c-1.3007813,1.1816406-1.578125,3.1328125-0.6064453,4.3222656
						C69.7841797,127.8076172,69.9267578,127.9443359,70.0820313,128.0595703z"/>
				</defs>
				<clipPath id="SVGID_28_">
					<use xlink:href="#SVGID_27_"  overflow="visible"/>
				</clipPath>
				<g clip-path="url(#SVGID_28_)" enable-background="new    ">
					<path fill="#6F6F70" d="M70.0820313,128.0595703l-1.6679688-1.2363281
						c-0.1552734-0.1152344-0.2978516-0.2519531-0.4238281-0.4091797c-0.6738281-0.8251953-0.7470703-2.0166016-0.2939453-3.0634766
						l1.6669922,1.2363281c-0.4521484,1.046875-0.3789063,2.2382813,0.2949219,3.0634766
						C69.7841797,127.8076172,69.9267578,127.9443359,70.0820313,128.0595703"/>
					<path fill="#737474" d="M69.3632813,124.5869141l-1.6669922-1.2363281
						c0.0605469-0.1416016,0.1318359-0.2802734,0.2128906-0.4160156l1.6669922,1.2363281
						C69.4960938,124.3056641,69.4248047,124.4453125,69.3632813,124.5869141"/>
					<path fill="#777878" d="M69.5761719,124.1708984l-1.6669922-1.2363281
						c0.0644531-0.109375,0.1357422-0.2167969,0.2138672-0.3203125l1.6669922,1.2363281
						C69.7128906,123.9541016,69.6416016,124.0615234,69.5761719,124.1708984"/>
					<path fill="#7C7C7D" d="M69.7900391,123.8505859l-1.6669922-1.2363281
						c0.0693359-0.09375,0.1445313-0.1845703,0.2236328-0.2724609l1.6679688,1.2363281
						C69.9345703,123.6660156,69.8603516,123.7568359,69.7900391,123.8505859"/>
					<path fill="#808081" d="M70.0146484,123.578125l-1.6679688-1.2363281
						c0.0771484-0.0839844,0.1582031-0.1650391,0.2431641-0.2431641l1.6679688,1.2353516
						C70.171875,123.4121094,70.0908203,123.4941406,70.0146484,123.578125"/>
					<path fill="#848585" d="M70.2578125,123.3339844l-1.6679688-1.2353516
						c0.0029297-0.0019531,0.0048828-0.0048828,0.0068359-0.0068359c0.09375-0.0859375,0.1904297-0.1660156,0.2900391-0.2402344
						l1.6669922,1.2353516c-0.0986328,0.0742188-0.1953125,0.1552734-0.2890625,0.2412109
						C70.2626953,123.3300781,70.2597656,123.3320313,70.2578125,123.3339844"/>
					<path fill="#88898A" d="M70.5537109,123.0869141l-1.6669922-1.2353516
						c0.1035156-0.078125,0.2109375-0.1494141,0.3193359-0.2148438l1.6669922,1.2363281
						C70.7646484,122.9375,70.6582031,123.0087891,70.5537109,123.0869141"/>
					<path fill="#8D8D8E" d="M70.8730469,122.8730469l-1.6669922-1.2363281
						c0.1279297-0.0761719,0.2587891-0.1435547,0.390625-0.2001953l1.6679688,1.2363281
						C71.1318359,122.7294922,71.0019531,122.796875,70.8730469,122.8730469"/>
					<path fill="#919292" d="M71.2646484,122.6728516l-1.6679688-1.2363281
						c0.1982422-0.0859375,0.3994141-0.1503906,0.5986328-0.1923828l1.6679688,1.2363281
						C71.6640625,122.5224609,71.4628906,122.5859375,71.2646484,122.6728516"/>
					<path fill="#959697" d="M71.8632813,122.4804688l-1.6679688-1.2363281
						c0.1259766-0.0263672,0.2509766-0.0429688,0.375-0.0517578l1.6669922,1.2363281
						C72.1142578,122.4365234,71.9892578,122.4541016,71.8632813,122.4804688"/>
				</g>
			</g>
			<g>
				<path fill="#B5B6B7" d="M79.0546875,121.5615234c6.2675781,0,11.9609375,2.6025391,15.8095703,7.390625
					c4.7392578,5.9140625,6,14.3193359,3.3398438,22.5537109l-0.8232422,2.59375
					c-0.1552734,0.6933594-0.5136719,1.3955078-1.1074219,1.9257813c-0.6552734,0.5986328-1.4404297,0.8984375-2.1787109,0.8984375
					c-0.7373047,0-1.4287109-0.2998047-1.8984375-0.8984375c-0.5869141-0.7021484-0.7060547-1.7382813-0.4199219-2.6708984
					l0.9667969-2.9873047c1.9814453-6.2392578,1.0537109-12.6162109-2.5585938-17.1269531
					c-2.9199219-3.6220703-7.2451172-5.5986328-11.9902344-5.5986328c-1.0761719,0-2.1738281,0.1015625-3.28125,0.3085938
					l-2.6347656,0.4960938c-0.2949219,0.0585938-0.5097656,0.0839844-0.7226563,0.0839844
					c-0.7314453,0-1.4296875-0.2958984-1.8974609-0.8798828c-0.9716797-1.1894531-0.6943359-3.140625,0.6064453-4.3222656
					c0.5957031-0.5478516,1.3115234-0.8564453,1.9726563-0.8994141l2.484375-0.4609375
					C76.1855469,121.6953125,77.6347656,121.5615234,79.0546875,121.5615234z"/>
			</g>
			<g enable-background="new    ">
				<defs>
					<path id="SVGID_29_" enable-background="new    " d="M96.0957031,115.4365234
						c0.5556641,0.4121094,1.1123047,0.8242188,1.6679688,1.2363281
						c-4.8554688-3.5986328-10.8076172-5.5205078-17.1894531-5.5195313c-1.6113281,0-3.2519531,0.1220703-4.90625,0.3710938
						L74,110.2880859c1.6552734-0.2490234,3.2949219-0.3710938,4.9072266-0.3710938
						C85.2880859,109.9160156,91.2402344,111.8378906,96.0957031,115.4365234z"/>
				</defs>
				<clipPath id="SVGID_30_">
					<use xlink:href="#SVGID_29_"  overflow="visible"/>
				</clipPath>
				<g clip-path="url(#SVGID_30_)" enable-background="new    ">
					<path fill="#959697" d="M75.6679688,111.5244141L74,110.2880859c1.6552734-0.2490234,3.2949219-0.3710938,4.9072266-0.3710938
						c1.4287109,0,2.8359375,0.0957031,4.2148438,0.2861328l1.6679688,1.2353516
						c-1.3789063-0.1894531-2.7861328-0.2861328-4.2158203-0.2851563
						C78.9628906,111.1533203,77.3222656,111.2753906,75.6679688,111.5244141"/>
					<path fill="#919292" d="M84.7900391,111.4384766l-1.6679688-1.2353516
						c2.3144531,0.3183594,4.5478516,0.9013672,6.6640625,1.7353516l1.6679688,1.2363281
						C89.3378906,112.3408203,87.1044922,111.7578125,84.7900391,111.4384766"/>
					<path fill="#8D8D8E" d="M91.4541016,113.1748047l-1.6679688-1.2363281
						c1.3945313,0.5498047,2.7373047,1.2089844,4.0195313,1.9726563l1.6679688,1.2363281
						C94.1914063,114.3837891,92.8476563,113.7246094,91.4541016,113.1748047"/>
					<path fill="#88898A" d="M95.4736328,115.1474609l-1.6679688-1.2363281
						c0.7871094,0.46875,1.5507813,0.9775391,2.2900391,1.5253906l1.6679688,1.2363281
						C97.0244141,116.125,96.2607422,115.6162109,95.4736328,115.1474609"/>
				</g>
			</g>
			<g enable-background="new    ">
				<defs>
					<path id="SVGID_31_" enable-background="new    " d="M64.7080078,137.8125L66.375,139.0488281
						c-1.1816406-0.8759766-2.6582031-1.3837891-4.3154297-1.3837891c-4.6357422,0-9,4.0058594-9.7036133,8.9453125
						c-0.2412109,1.6943359-0.0058594,3.2773438,0.5839844,4.6474609l-1.6679688-1.2363281
						c-0.5893555-1.3701172-0.8251953-2.953125-0.5839844-4.6474609c0.7036133-4.9384766,5.0683594-8.9443359,9.7036133-8.9443359
						C62.0498047,136.4296875,63.5253906,136.9365234,64.7080078,137.8125z"/>
				</defs>
				<clipPath id="SVGID_32_">
					<use xlink:href="#SVGID_31_"  overflow="visible"/>
				</clipPath>
				<g clip-path="url(#SVGID_32_)" enable-background="new    ">
					<path fill="#6F6F70" d="M52.9399414,151.2578125l-1.6679688-1.2363281
						c-0.5893555-1.3701172-0.8251953-2.953125-0.5839844-4.6474609c0.1298828-0.9101563,0.3837891-1.7880859,0.7407227-2.6152344
						l1.6674805,1.2353516c-0.3569336,0.828125-0.6108398,1.7060547-0.7402344,2.6162109
						C52.1147461,148.3046875,52.3500977,149.8876953,52.9399414,151.2578125"/>
					<path fill="#737474" d="M53.0961914,143.9941406l-1.6674805-1.2353516
						c0.184082-0.4267578,0.3955078-0.8398438,0.6313477-1.2363281l1.6674805,1.2353516
						C53.4916992,143.1552734,53.2802734,143.5683594,53.0961914,143.9941406"/>
					<path fill="#777878" d="M53.7275391,142.7578125l-1.6674805-1.2353516
						c0.1972656-0.3330078,0.4121094-0.6533203,0.6420898-0.9609375l1.6674805,1.2353516
						C54.1396484,142.1054688,53.925293,142.4257813,53.7275391,142.7578125"/>
					<path fill="#7C7C7D" d="M54.3696289,141.796875l-1.6674805-1.2353516
						c0.2114258-0.2832031,0.4360352-0.5556641,0.6723633-0.8164063l1.6674805,1.2363281
						C54.8056641,141.2421875,54.5810547,141.5136719,54.3696289,141.796875"/>
					<path fill="#808081" d="M55.0419922,140.9814453l-1.6674805-1.2363281
						c0.2304688-0.2539063,0.472168-0.4960938,0.7241211-0.7255859l1.6674805,1.2353516
						C55.5146484,140.4853516,55.2724609,140.7275391,55.0419922,140.9814453"/>
					<path fill="#848585" d="M55.7661133,140.2548828l-1.6674805-1.2353516
						c0.2568359-0.234375,0.5234375-0.4560547,0.7998047-0.6630859l1.6674805,1.2363281
						C56.2900391,139.7998047,56.0229492,140.0205078,55.7661133,140.2548828"/>
					<path fill="#88898A" d="M56.565918,139.5927734l-1.6674805-1.2363281
						c0.293457-0.2197266,0.597168-0.4238281,0.909668-0.6103516l1.6674805,1.2363281
						C57.1630859,139.1689453,56.859375,139.3730469,56.565918,139.5927734"/>
					<path fill="#8D8D8E" d="M57.4755859,138.9824219l-1.6674805-1.2363281
						c0.3637695-0.2167969,0.7397461-0.4101563,1.1245117-0.5771484l1.6679688,1.2363281
						C58.2158203,138.5722656,57.8398438,138.765625,57.4755859,138.9824219"/>
					<path fill="#919292" d="M58.6005859,138.4052734l-1.6679688-1.2363281
						c0.5795898-0.2509766,1.1806641-0.4433594,1.7939453-0.5693359l1.6679688,1.2363281
						C59.78125,137.9609375,59.1796875,138.1533203,58.6005859,138.4052734"/>
					<path fill="#959697" d="M60.3945313,137.8359375l-1.6679688-1.2363281
						c0.546875-0.1113281,1.1044922-0.1699219,1.6650391-0.1699219c0.3535156,0,0.6982422,0.0224609,1.0341797,0.0673828
						l1.6679688,1.2363281c-0.3359375-0.0449219-0.6806641-0.0683594-1.0341797-0.0683594
						C61.4980469,137.6650391,60.9414063,137.7236328,60.3945313,137.8359375"/>
					<path fill="#919292" d="M63.09375,137.7333984l-1.6679688-1.2363281
						c0.5966797,0.0800781,1.1640625,0.2275391,1.6953125,0.4365234l1.6679688,1.2363281
						C64.2578125,137.9609375,63.6904297,137.8125,63.09375,137.7333984"/>
					<path fill="#8D8D8E" d="M64.7890625,138.1699219l-1.6679688-1.2363281
						c0.3535156,0.1396484,0.6914063,0.3056641,1.0117188,0.4960938l1.6679688,1.2363281
						C65.4804688,138.4755859,65.1425781,138.3085938,64.7890625,138.1699219"/>
					<path fill="#88898A" d="M65.8007813,138.6660156l-1.6679688-1.2363281
						c0.1992188,0.1181641,0.390625,0.2460938,0.5751953,0.3828125L66.375,139.0488281
						C66.1904297,138.9121094,65.9990234,138.7841797,65.8007813,138.6660156"/>
				</g>
			</g>
			<g>
				<polygon fill="#999A9B" points="45.9785156,149.9824219 44.3110352,148.7470703 51.2719727,150.0214844 52.9399414,151.2578125 
									"/>
			</g>
			<g>
				<polygon fill="#9E9FA0" points="73.1572266,111.8837891 71.4892578,110.6474609 74,110.2880859 75.6679688,111.5244141 				"/>
			</g>
			<g enable-background="new    ">
				<defs>
					<path id="SVGID_33_" enable-background="new    " d="M70.7763672,117.5117188
						c-0.5556641-0.4121094-1.1113281-0.8242188-1.6679688-1.2363281c-0.15625-0.1162109-0.3017578-0.2548828-0.4316406-0.4150391
						c-0.9570313-1.1806641-0.6787109-3.1318359,0.6152344-4.3222656c0.6669922-0.5986328,1.4560547-0.890625,2.1972656-0.890625
						l1.6679688,1.2363281c-0.7421875,0-1.5302734,0.2919922-2.1972656,0.890625
						c-1.2939453,1.1894531-1.5722656,3.140625-0.6162109,4.3222656
						C70.4746094,117.2568359,70.6191406,117.3955078,70.7763672,117.5117188z"/>
				</defs>
				<clipPath id="SVGID_34_">
					<use xlink:href="#SVGID_33_"  overflow="visible"/>
				</clipPath>
				<g clip-path="url(#SVGID_34_)" enable-background="new    ">
					<path fill="#6F6F70" d="M70.7763672,117.5117188l-1.6679688-1.2363281
						c-0.15625-0.1162109-0.3017578-0.2548828-0.4316406-0.4150391c-0.6650391-0.8203125-0.7333984-2.0136719-0.2792969-3.0644531
						l1.6679688,1.2363281c-0.4541016,1.0507813-0.3857422,2.2441406,0.2783203,3.0644531
						C70.4746094,117.2568359,70.6191406,117.3955078,70.7763672,117.5117188"/>
					<path fill="#737474" d="M70.0654297,114.0322266l-1.6679688-1.2363281
						c0.0625-0.1435547,0.1337891-0.2841797,0.2158203-0.4208984l1.6679688,1.2353516
						C70.1992188,113.7480469,70.1279297,113.8886719,70.0654297,114.0322266"/>
					<path fill="#777878" d="M70.28125,113.6103516L68.6132813,112.375
						c0.0654297-0.1113281,0.1376953-0.2197266,0.2158203-0.3242188l1.6679688,1.2363281
						C70.4189453,113.3916016,70.3466797,113.5,70.28125,113.6103516"/>
					<path fill="#7C7C7D" d="M70.4970703,113.2871094l-1.6679688-1.2363281
						c0.0712891-0.0947266,0.1464844-0.1865234,0.2275391-0.2753906l1.6669922,1.2363281
						C70.6435547,113.1005859,70.5673828,113.1923828,70.4970703,113.2871094"/>
					<path fill="#808081" d="M70.7236328,113.0117188l-1.6669922-1.2363281
						c0.0742188-0.0820313,0.1523438-0.1611328,0.2353516-0.2373047c0.0029297-0.0019531,0.0048828-0.0039063,0.0078125-0.0068359
						l1.6679688,1.2363281c-0.0029297,0.0019531-0.0058594,0.0048828-0.0078125,0.0068359
						C70.8769531,112.8505859,70.7978516,112.9296875,70.7236328,113.0117188"/>
					<path fill="#848585" d="M70.9677734,112.7675781l-1.6679688-1.2363281
						c0.0820313-0.0732422,0.1660156-0.1416016,0.2509766-0.2060547l1.6679688,1.2363281
						C71.1328125,112.6259766,71.0498047,112.6943359,70.9677734,112.7675781"/>
					<path fill="#88898A" d="M71.21875,112.5615234l-1.6679688-1.2363281
						c0.1044922-0.078125,0.2109375-0.1494141,0.3193359-0.2138672l1.6679688,1.2363281
						C71.4296875,112.4121094,71.3232422,112.4833984,71.21875,112.5615234"/>
					<path fill="#8D8D8E" d="M71.5380859,112.3476563l-1.6679688-1.2363281
						c0.1279297-0.0761719,0.2587891-0.1435547,0.3916016-0.2011719l1.6669922,1.2363281
						C71.796875,112.2041016,71.6660156,112.2705078,71.5380859,112.3476563"/>
					<path fill="#919292" d="M71.9287109,112.1464844l-1.6669922-1.2363281
						c0.2060547-0.0898438,0.4160156-0.15625,0.6259766-0.1992188l1.6669922,1.2353516
						C72.3457031,111.9902344,72.1357422,112.0566406,71.9287109,112.1464844"/>
					<path fill="#959697" d="M72.5546875,111.9462891l-1.6669922-1.2353516
						c0.2011719-0.0419922,0.4033203-0.0634766,0.6015625-0.0634766l1.6679688,1.2363281
						C72.9589844,111.8837891,72.7568359,111.9042969,72.5546875,111.9462891"/>
				</g>
			</g>
			<g>
				<path fill="#B5B6B7" d="M102.8691406,121.5908203c6.4384766,8.0107422,8.3261719,19.2929688,5.140625,30.4716797
					l-0.7548828,2.6875c-0.1679688,0.7792969-0.5537109,1.4980469-1.1220703,2.0205078
					c-0.6455078,0.5898438-1.4238281,0.8857422-2.1611328,0.8857422c-0.7363281,0-1.4326172-0.2958984-1.9150391-0.8857422
					c-0.6259766-0.7705078-0.7451172-1.875-0.3818359-2.8847656l0.7753906-2.7128906
					c2.6396484-9.2792969,1.0654297-18.6171875-4.2714844-25.2763672
					c-4.4785156-5.6064453-11.140625-8.6699219-18.4912109-8.6699219c-1.3369141,0-2.6943359,0.1015625-4.0673828,0.3066406
					l-2.9013672,0.4365234c-0.1601563-0.0009766-0.3154297,0.0126953-0.4677734,0.0126953
					c-0.7353516,0-1.4228516-0.2910156-1.9072266-0.8857422c-0.9560547-1.1816406-0.6777344-3.1328125,0.6162109-4.3222656
					c0.6669922-0.5986328,1.4550781-0.890625,2.1972656-0.890625l2.5107422-0.359375
					c1.6542969-0.2490234,3.2949219-0.3710938,4.90625-0.3710938
					C89.4257813,111.1523438,97.4511719,114.8496094,102.8691406,121.5908203z"/>
			</g>
			<g enable-background="new    ">
				<defs>
					<path id="SVGID_35_" enable-background="new    " d="M8.4101563,192.0273438l-1.6679688-1.2363281
						c1.5615234,0,3.1523438,0.0273438,4.7431641,0.0273438c1.4580078,0,2.9169922-0.0234375,4.3535156-0.1142578
						c1.4150391-0.1103516,2.7988281-0.3417969,4.1674805-0.8632813c4.7158203-1.8144531,9.0507813-7.4892578,12.1508789-11.9316406
						l1.6674805,1.2363281c-3.1000977,4.4414063-7.4350586,10.1162109-12.1508789,11.9316406
						c-1.3681641,0.5214844-2.7519531,0.7529297-4.1674805,0.8632813c-1.4365234,0.0898438-2.8950195,0.1142578-4.3535156,0.1142578
						C11.5620117,192.0546875,9.9716797,192.0273438,8.4101563,192.0273438z"/>
				</defs>
				<clipPath id="SVGID_36_">
					<use xlink:href="#SVGID_35_"  overflow="visible"/>
				</clipPath>
				<g clip-path="url(#SVGID_36_)" enable-background="new    ">
					<path fill="#959697" d="M8.4101563,192.0273438l-1.6679688-1.2363281c1.5615234,0,3.1523438,0.0273438,4.7431641,0.0273438
						c1.4580078,0,2.9169922-0.0234375,4.3535156-0.1142578c0.7617188-0.0585938,1.5146484-0.1533203,2.2607422-0.3095703
						l1.6679688,1.2363281c-0.746582,0.1552734-1.4990234,0.25-2.2612305,0.3095703
						c-1.4365234,0.0898438-2.8950195,0.1142578-4.3535156,0.1142578
						C11.5620117,192.0546875,9.9716797,192.0273438,8.4101563,192.0273438"/>
					<path fill="#919292" d="M19.7675781,191.6308594l-1.6679688-1.2363281
						c0.6401367-0.1337891,1.2749023-0.3125,1.9067383-0.5537109c0.1416016-0.0546875,0.2822266-0.1123047,0.4228516-0.1738281
						l1.6679688,1.2363281c-0.140625,0.0615234-0.2817383,0.1191406-0.4233398,0.1738281
						C21.0424805,191.3173828,20.4072266,191.4970703,19.7675781,191.6308594"/>
					<path fill="#8D8D8E" d="M22.097168,190.9033203l-1.6679688-1.2363281
						c0.4790039-0.2080078,0.953125-0.4550781,1.4223633-0.734375l1.6674805,1.2353516
						C23.0498047,190.4482422,22.5756836,190.6953125,22.097168,190.9033203"/>
					<path fill="#88898A" d="M23.519043,190.1679688l-1.6674805-1.2353516
						c0.4902344-0.2929688,0.9750977-0.6220703,1.453125-0.9804688l1.6674805,1.2363281
						C24.4941406,189.546875,24.0092773,189.8759766,23.519043,190.1679688"/>
					<path fill="#848585" d="M24.972168,189.1884766l-1.6674805-1.2363281
						c0.5639648-0.4238281,1.1186523-0.8886719,1.6625977-1.3857422l1.6674805,1.2363281
						C26.0908203,188.2998047,25.5361328,188.7646484,24.972168,189.1884766"/>
					<path fill="#808081" d="M26.6347656,187.8027344l-1.6674805-1.2363281
						c0.7265625-0.6630859,1.4335938-1.3837891,2.1171875-2.1367188l1.6674805,1.2363281
						C28.0688477,186.4189453,27.3613281,187.1386719,26.6347656,187.8027344"/>
					<path fill="#7C7C7D" d="M28.7519531,185.6660156l-1.6674805-1.2363281
						c1.1469727-1.2636719,2.2270508-2.6181641,3.222168-3.9492188l1.6674805,1.2353516
						C30.9794922,183.0478516,29.8989258,184.4023438,28.7519531,185.6660156"/>
					<path fill="#777878" d="M31.9741211,181.7158203l-1.6674805-1.2353516
						c0.6557617-0.8779297,1.2744141-1.7460938,1.8505859-2.5712891l1.6674805,1.2363281
						C33.2485352,179.9707031,32.6298828,180.8388672,31.9741211,181.7158203"/>
				</g>
			</g>
			<g enable-background="new    ">
				<defs>
					<path id="SVGID_37_" enable-background="new    " d="M26.2045898,169.5537109l-1.6679688-1.2353516
						c-0.1767578-0.1318359-0.3393555-0.2871094-0.4838867-0.4667969c-0.9208984-1.1474609-0.800293-2.9013672,0.1547852-4.2109375
						L25.875,164.8759766c-0.9550781,1.3095703-1.0751953,3.0644531-0.1547852,4.2109375
						C25.8647461,169.2675781,26.0273438,169.4228516,26.2045898,169.5537109z"/>
				</defs>
				<clipPath id="SVGID_38_">
					<use xlink:href="#SVGID_37_"  overflow="visible"/>
				</clipPath>
				<g clip-path="url(#SVGID_38_)" enable-background="new    ">
					<path fill="#6F6F70" d="M26.2045898,169.5537109l-1.6679688-1.2353516
						c-0.1767578-0.1318359-0.3393555-0.2871094-0.4838867-0.4667969c-0.7421875-0.9248047-0.8076172-2.2451172-0.3046875-3.4082031
						l1.6674805,1.2363281c-0.5029297,1.1630859-0.4375,2.4824219,0.3046875,3.4072266
						C25.8647461,169.2675781,26.0273438,169.4228516,26.2045898,169.5537109"/>
					<path fill="#737474" d="M25.4155273,165.6796875l-1.6674805-1.2363281
						c0.0698242-0.1621094,0.1508789-0.3203125,0.2426758-0.4746094l1.6679688,1.2353516
						C25.5668945,165.3583984,25.4858398,165.5175781,25.4155273,165.6796875"/>
					<path fill="#777878" d="M25.6586914,165.2041016l-1.6679688-1.2353516
						c0.0668945-0.1123047,0.1391602-0.2216797,0.2167969-0.328125L25.875,164.8759766
						C25.7973633,164.9833984,25.7250977,165.0927734,25.6586914,165.2041016"/>
				</g>
			</g>
			<g>
				<polygon fill="#9D9E9F" points="5.6923828,192.0273438 4.0244141,190.7910156 6.7421875,190.7910156 8.4101563,192.0273438 				
					"/>
			</g>
			<g enable-background="new    ">
				<defs>
					<path id="SVGID_39_" enable-background="new    " d="M25.875,164.8759766l-1.6674805-1.2353516
						c4.9521484-7.2333984,9.2670898-15.1318359,17.543457-15.1318359c0.8134766,0,1.6660156,0.0761719,2.5600586,0.2382813
						l1.6674805,1.2353516c-0.8935547-0.1611328-1.7460938-0.2373047-2.5595703-0.2373047
						C35.1420898,149.7451172,30.8276367,157.6435547,25.875,164.8759766z"/>
				</defs>
				<clipPath id="SVGID_40_">
					<use xlink:href="#SVGID_39_"  overflow="visible"/>
				</clipPath>
				<g clip-path="url(#SVGID_40_)" enable-background="new    ">
					<path fill="#777878" d="M25.875,164.8759766l-1.6674805-1.2353516
						c1.6303711-2.3818359,3.1914063-4.8349609,4.8476563-7.0546875l1.6674805,1.2363281
						C29.0664063,160.0419922,27.5053711,162.4951172,25.875,164.8759766"/>
					<path fill="#7C7C7D" d="M30.7226563,157.8222656l-1.6674805-1.2363281
						c0.7304688-0.9785156,1.4794922-1.9130859,2.2612305-2.7744141l1.6674805,1.2353516
						C32.2021484,155.9091797,31.453125,156.8427734,30.7226563,157.8222656"/>
					<path fill="#808081" d="M32.9838867,155.046875l-1.6674805-1.2353516
						c0.5048828-0.5566406,1.0229492-1.0839844,1.5585938-1.5742188l1.6679688,1.2363281
						C34.0073242,153.9638672,33.4887695,154.4902344,32.9838867,155.046875"/>
					<path fill="#848585" d="M34.5429688,153.4736328L32.875,152.2373047
						c0.4360352-0.3984375,0.8828125-0.7724609,1.34375-1.1181641l1.6674805,1.2363281
						C35.4257813,152.7011719,34.9785156,153.0751953,34.5429688,153.4736328"/>
					<path fill="#88898A" d="M35.8862305,152.3554688l-1.6674805-1.2363281
						c0.4248047-0.3183594,0.8608398-0.6132813,1.3100586-0.8808594l1.6674805,1.2353516
						C36.7470703,151.7421875,36.3110352,152.0361328,35.8862305,152.3554688"/>
					<path fill="#8D8D8E" d="M37.1962891,151.4736328l-1.6674805-1.2353516
						c0.4750977-0.2832031,0.9648438-0.5361328,1.4711914-0.7558594l1.6679688,1.2363281
						C38.1616211,150.9375,37.671875,151.1904297,37.1962891,151.4736328"/>
					<path fill="#919292" d="M38.6679688,150.71875L37,149.4824219c0.7270508-0.3154297,1.487793-0.5605469,2.2885742-0.7265625
						l1.6674805,1.2363281C40.1557617,150.1582031,39.3945313,150.4033203,38.6679688,150.71875"/>
					<path fill="#959697" d="M40.9560547,149.9921875l-1.6674805-1.2363281
						c0.78125-0.1611328,1.6000977-0.2470703,2.4624023-0.2470703c0.6186523,0,1.2592773,0.0439453,1.9238281,0.1357422
						l1.6674805,1.2363281c-0.6645508-0.0917969-1.3051758-0.1357422-1.9233398-0.1357422
						C42.5566406,149.7451172,41.7373047,149.8310547,40.9560547,149.9921875"/>
					<path fill="#919292" d="M45.3422852,149.8808594l-1.6674805-1.2363281
						c0.2094727,0.0292969,0.421875,0.0634766,0.6362305,0.1025391l1.6674805,1.2353516
						C45.7641602,149.9443359,45.5522461,149.9101563,45.3422852,149.8808594"/>
				</g>
			</g>
			<g enable-background="new    ">
				<defs>
					<path id="SVGID_41_" enable-background="new    " d="M2.8422852,193.0107422l-1.6679688-1.2363281
						c0.7475586-0.6679688,1.6318359-1.0078125,2.4702148-1.0078125c0.1279297,0,0.2543945,0.0087891,0.3798828,0.0244141
						l1.6679688,1.2363281c-0.1254883-0.0166016-0.2519531-0.0244141-0.3803711-0.0244141
						C4.4736328,192.0029297,3.5898438,192.3427734,2.8422852,193.0107422z"/>
				</defs>
				<clipPath id="SVGID_42_">
					<use xlink:href="#SVGID_41_"  overflow="visible"/>
				</clipPath>
				<g clip-path="url(#SVGID_42_)" enable-background="new    ">
					<path fill="#848585" d="M2.8422852,193.0107422l-1.6679688-1.2363281
						c0.0947266-0.0849609,0.1918945-0.1640625,0.2905273-0.2382813l1.6679688,1.2363281
						C3.0336914,192.8466797,2.9370117,192.9257813,2.8422852,193.0107422"/>
					<path fill="#88898A" d="M3.1328125,192.7724609l-1.6679688-1.2363281
						c0.1201172-0.0898438,0.2426758-0.171875,0.3671875-0.2460938l1.6674805,1.2363281
						C3.375,192.6005859,3.2524414,192.6826172,3.1328125,192.7724609"/>
					<path fill="#8D8D8E" d="M3.4995117,192.5263672l-1.6674805-1.2363281
						c0.1464844-0.0869141,0.2958984-0.1640625,0.4472656-0.2294922l1.6674805,1.2363281
						C3.7954102,192.3623047,3.6464844,192.4384766,3.4995117,192.5263672"/>
					<path fill="#919292" d="M3.9467773,192.296875l-1.6674805-1.2363281
						c0.230957-0.1005859,0.4658203-0.1748047,0.7011719-0.2246094l1.6674805,1.2363281
						C4.4125977,192.1210938,4.1777344,192.1962891,3.9467773,192.296875"/>
					<path fill="#959697" d="M4.6479492,192.0722656l-1.6674805-1.2363281
						c0.222168-0.0458984,0.4448242-0.0693359,0.6640625-0.0693359c0.1279297,0,0.2543945,0.0087891,0.3798828,0.0244141
						l1.6679688,1.2363281c-0.1254883-0.0166016-0.2519531-0.0244141-0.3803711-0.0244141
						C5.0927734,192.0029297,4.8701172,192.0263672,4.6479492,192.0722656"/>
				</g>
			</g>
			<g enable-background="new    ">
				<defs>
					<path id="SVGID_43_" enable-background="new    " d="M2.6376953,198.2910156
						c-0.5556641-0.4121094-1.1118164-0.8242188-1.6674805-1.2363281c-0.175293-0.1298828-0.3374023-0.2832031-0.4819336-0.4609375
						c-1.0654297-1.3261719-0.7485352-3.4921875,0.6860352-4.8193359l1.6679688,1.2363281
						c-1.4345703,1.3271484-1.7514648,3.4931641-0.6865234,4.8193359
						C2.3007813,198.0078125,2.4624023,198.1611328,2.6376953,198.2910156z"/>
				</defs>
				<clipPath id="SVGID_44_">
					<use xlink:href="#SVGID_43_"  overflow="visible"/>
				</clipPath>
				<g clip-path="url(#SVGID_44_)" enable-background="new    ">
					<path fill="#6F6F70" d="M2.6376953,198.2910156l-1.6674805-1.2363281
						c-0.175293-0.1298828-0.3374023-0.2832031-0.4819336-0.4609375c-0.7402344-0.9208984-0.8129883-2.2480469-0.3076172-3.4169922
						l1.6679688,1.2353516c-0.5058594,1.1699219-0.4326172,2.4960938,0.3071289,3.4179688
						C2.3007813,198.0078125,2.4624023,198.1611328,2.6376953,198.2910156"/>
					<path fill="#737474" d="M1.8486328,194.4121094l-1.6679688-1.2353516
						c0.0698242-0.1611328,0.1503906-0.3193359,0.2416992-0.4726563l1.6674805,1.2363281
						C1.9985352,194.09375,1.9179688,194.2519531,1.8486328,194.4121094"/>
					<path fill="#777878" d="M2.0898438,193.9404297l-1.6674805-1.2363281
						c0.0737305-0.1240234,0.1547852-0.2451172,0.2421875-0.3632813l1.6679688,1.2363281
						C2.2446289,193.6943359,2.1635742,193.8164063,2.0898438,193.9404297"/>
					<path fill="#7C7C7D" d="M2.3325195,193.5771484l-1.6679688-1.2363281
						c0.0795898-0.1054688,0.1640625-0.2089844,0.2543945-0.3085938l1.6679688,1.2363281
						C2.496582,193.3681641,2.4116211,193.4707031,2.3325195,193.5771484"/>
					<path fill="#808081" d="M2.5869141,193.2685547l-1.6679688-1.2363281
						C1,191.9433594,1.0849609,191.8574219,1.1743164,191.7744141l1.6679688,1.2363281
						C2.7529297,193.09375,2.6674805,193.1796875,2.5869141,193.2685547"/>
				</g>
			</g>
			<g>
				<path fill="#B5B6B7" d="M81.1953125,154.7763672c1.0605469,1.2998047,0.7666016,3.4228516-0.6357422,4.75
					l-11.0458984,10.8710938c-2.1357422,2.1015625-4.5908203,3.1826172-6.8183594,3.1826172
					c-2.8427734,0-5.3154297-1.7607422-6.2836914-5.4082031l-0.2895508-1.1474609l-7.9663086,11.5722656h5.840332
					c6.8037109,0,10.5498047,5.9492188,6.4775391,13.1308594c-2.4179688,4.3134766-4.8686523,8.6279297-7.3779297,12.8994141
					l-1.7460938,2.9443359c-0.2680664,0.4619141-0.5336914,0.7958984-0.8291016,1.0517578
					c-0.715332,0.6699219-1.5874023,1.0029297-2.4160156,1.0029297c-0.8256836,0-1.6083984-0.3310547-2.1479492-0.9931641
					c-0.8242188-1.0273438-0.8232422-2.5683594-0.0766602-3.8349609l1.8212891-3.0732422
					c2.4707031-4.2285156,4.8979492-8.4912109,7.2924805-12.7529297c1.4316406-2.5517578,0.0488281-3.5791016-2.1757813-3.5791016
					H36.8662109c-5.2700195,7.0712891-11.0639648,12.7626953-19.9233398,13.3447266
					c-1.5761719,0.1035156-3.1669922,0.1279297-4.7563477,0.1279297c-1.5898438,0-3.1777344-0.0244141-4.7470703-0.0244141
					H4.2202148c-0.7949219-0.0429688-1.5410156-0.3691406-2.0644531-1.0107422
					c-1.0649414-1.3261719-0.7480469-3.4921875,0.6865234-4.8193359c0.7475586-0.6679688,1.6313477-1.0078125,2.4697266-1.0078125
					c0.128418,0,0.2548828,0.0078125,0.3803711,0.0244141h2.7177734c1.5615234,0,3.1518555,0.0273438,4.7426758,0.0273438
					c1.4584961,0,2.9169922-0.0244141,4.3535156-0.1142578c1.4155273-0.1103516,2.7993164-0.3417969,4.1674805-0.8632813
					c4.7158203-1.8154297,9.0507813-7.4902344,12.1508789-11.9316406l14.7177734-21.6054688l-4.5737305-0.8300781
					c-0.5-0.0839844-1.0102539-0.1416016-1.5239258-0.1416016c-0.8413086,0-1.690918,0.1542969-2.512207,0.5957031
					c-3.027832,1.6083984-7.0419922,8.3193359-9.0522461,11.2470703c-0.1787109,0.2314453-0.3813477,0.4619141-0.605957,0.6757813
					c-0.7172852,0.6640625-1.5893555,0.9951172-2.4160156,0.9951172c-0.8256836,0-1.605957-0.3310547-2.1381836-0.9951172
					c-0.9204102-1.1464844-0.800293-2.9013672,0.1547852-4.2109375c4.9526367-7.2324219,9.2670898-15.1308594,17.5439453-15.1308594
					c0.8134766,0,1.6660156,0.0761719,2.5595703,0.2373047l6.9614258,1.2753906
					c-0.5898438-1.3701172-0.8251953-2.953125-0.5839844-4.6474609c0.7036133-4.9394531,5.0678711-8.9453125,9.7036133-8.9453125
					c4.6582031,0,7.8818359,4.0058594,7.1777344,8.9453125c-0.6650391,4.6728516-4.6337891,8.515625-9.0458984,8.8847656
					c0.7958984,3.3291016,1.6601563,6.6835938,2.5322266,9.9882813c0.2236328,0.8476563,0.6044922,1.1933594,1.078125,1.1933594
					c0.5273438,0,1.1699219-0.4287109,1.8417969-1.0732422l10.6708984-10.5205078l0.3271484-0.3066406
					c0.7207031-0.6640625,1.5927734-0.9960938,2.4189453-0.9960938
					C79.8857422,153.7802734,80.6640625,154.1123047,81.1953125,154.7763672z"/>
			</g>
		</g>
	</g>
</g>
</svg>
