<?xml version="1.0" encoding="utf-8"?>
<!-- Generator: Adobe Illustrator 16.0.0, SVG Export Plug-In . SVG Version: 6.00 Build 0)  -->
<!DOCTYPE svg PUBLIC "-//W3C//DTD SVG 1.1//EN" "http://www.w3.org/Graphics/SVG/1.1/DTD/svg11.dtd">
<svg version="1.1" id="Слой_1" xmlns="http://www.w3.org/2000/svg" xmlns:xlink="http://www.w3.org/1999/xlink" x="0px" y="0px"
	 width="115.550293px" height="234.730957px" viewBox="0 0 115.550293 234.730957"
	 enable-background="new 0 0 115.550293 234.730957" xml:space="preserve">
<linearGradient id="SVGID_1_" gradientUnits="userSpaceOnUse" x1="207.0200195" y1="759.4135742" x2="207.0200195" y2="865.2340698" gradientTransform="matrix(-1 -0.0029 0.0029 -1 262.4151611 879.7940674)">
	<stop  offset="0.139394" style="stop-color:#000002"/>
	<stop  offset="1" style="stop-color:#939291"/>
</linearGradient>
<path fill-rule="evenodd" clip-rule="evenodd" fill="url(#SVGID_1_)" d="M91.9975586,104.3188477
	c-25.7080078,18.9052734-61.8671875,13.3779297-80.7714844-12.3232422
	C-7.6665039,66.2807617-2.152832,30.1254883,23.5493164,11.2299805
	C49.2631836-7.6694336,85.4223633-2.1538086,104.3208008,23.5600586
	C123.2202148,49.2583008,117.699707,85.418457,91.9975586,104.3188477z"/>
<path fill-rule="evenodd" clip-rule="evenodd" fill="#232626" d="M91.5297852,103.6948242
	c-25.3603516,18.6376953-61.0244141,13.1972656-79.6738281-12.1621094
	C-6.793457,66.1772461-1.3413086,30.5004883,24.0180664,11.8510742
	C49.3774414-6.7954102,85.0483398-1.3432617,103.690918,24.0131836
	C122.340332,49.3686523,116.8950195,85.0424805,91.5297852,103.6948242z"/>
<path fill-rule="evenodd" clip-rule="evenodd" fill="#0AF2EB" d="M89.059082,100.3295898
	c-23.4980469,17.2744141-56.5625,12.2333984-73.8378906-11.2626953
	C-2.0649414,65.5532227,2.9819336,32.4946289,26.487793,15.2202148
	C49.9868164-2.0551758,83.0512695,2.9868164,100.3256836,26.4916992
	C117.6118164,49.9897461,112.559082,83.0415039,89.059082,100.3295898L89.059082,100.3295898z M85.9331055,96.0795898
	c21.1611328-15.5507813,25.6992188-45.3095703,10.1455078-66.4667969
	C80.5317383,8.4633789,50.769043,3.9165039,29.6079102,19.4633789C8.4526367,35.0258789,3.9155273,64.7885742,19.4692383,85.925293
	C35.0219727,107.0864258,64.777832,111.6381836,85.9331055,96.0795898z"/>
<linearGradient id="SVGID_2_" gradientUnits="userSpaceOnUse" x1="207.0229492" y1="871.6118164" x2="207.0229492" y2="771.2387695" gradientTransform="matrix(-1 -0.0029 0.0029 -1 262.4151611 879.7940674)">
	<stop  offset="0.0666667" style="stop-color:#222224"/>
	<stop  offset="1" style="stop-color:#000002"/>
</linearGradient>
<path fill-rule="evenodd" clip-rule="evenodd" fill="url(#SVGID_2_)" d="M87.5024414,98.1958008
	c-22.3359375,16.4189453-53.7402344,11.6347656-70.1572266-10.6982422
	C0.9282227,65.1616211,5.7211914,33.7670898,28.050293,17.3374023c22.3310547-16.4179688,53.734375-11.625,70.1513672,10.7119141
	C114.6186523,50.378418,109.8198242,81.7797852,87.5024414,98.1958008z"/>
<linearGradient id="SVGID_3_" gradientUnits="userSpaceOnUse" x1="208.7495117" y1="846.128418" x2="204.7760773" y2="789.3057861" gradientTransform="matrix(-1 -0.0029 0.0029 -1 262.4151611 879.7940674)">
	<stop  offset="0" style="stop-color:#000002"/>
	<stop  offset="0.88" style="stop-color:#939291"/>
	<stop  offset="1" style="stop-color:#B3B2B3"/>
</linearGradient>
<path fill-rule="evenodd" clip-rule="evenodd" fill="url(#SVGID_3_)" d="M85.2827148,95.1977539
	c-20.6650391,15.1982422-49.7314453,10.7509766-64.9257813-9.9140625
	C5.1625977,64.6264648,9.5991211,35.5483398,30.2641602,20.3481445C50.9301758,5.159668,80.0024414,9.5913086,95.1967773,30.2602539
	C110.3911133,50.9282227,105.9545898,79.9946289,85.2827148,95.1977539z"/>
<path fill-rule="evenodd" clip-rule="evenodd" fill="#3A3C3D" d="M84.9360352,94.7143555
	c-20.4023438,15.0068359-49.1035156,10.6337891-64.1083984-9.7802734c-15-20.40625-10.6240234-49.1123047,9.7841797-64.109375
	c20.4013672-15,49.1152344-10.6240234,64.1074219,9.7851563C109.7192383,51.012207,105.3432617,79.7182617,84.9360352,94.7143555z"
	/>
<linearGradient id="SVGID_4_" gradientUnits="userSpaceOnUse" x1="212.8168945" y1="851.7133789" x2="212.8168945" y2="790.3061523" gradientTransform="matrix(-1 -0.0029 0.0029 -1 262.4151611 879.7940674)">
	<stop  offset="0" style="stop-color:#939291"/>
	<stop  offset="0.860606" style="stop-color:#000002"/>
</linearGradient>
<polygon fill-rule="evenodd" clip-rule="evenodd" fill="url(#SVGID_4_)" points="75.0356445,88.9379883 28.7827148,58.1489258 
	75.2612305,27.5307617 "/>
<linearGradient id="SVGID_5_" gradientUnits="userSpaceOnUse" x1="212.6821289" y1="850.7133789" x2="212.6821289" y2="791.0893555" gradientTransform="matrix(-1 -0.0029 0.0029 -1 262.4151611 879.7940674)">
	<stop  offset="0.0545455" style="stop-color:#222224"/>
	<stop  offset="1" style="stop-color:#000002"/>
</linearGradient>
<polygon fill-rule="evenodd" clip-rule="evenodd" fill="url(#SVGID_5_)" points="74.5366211,88.1538086 29.6000977,58.2124023 
	74.7084961,28.5297852 "/>
<polygon fill-rule="evenodd" clip-rule="evenodd" fill="#0AF2EB" points="72.3081055,83.9106445 32.8735352,58.222168 
	72.4555664,32.7680664 "/>
<linearGradient id="SVGID_6_" gradientUnits="userSpaceOnUse" x1="207.0219727" y1="818.6606445" x2="207.0219727" y2="775.5600586" gradientTransform="matrix(-1 -0.0029 0.0029 -1 262.4151611 879.7940674)">
	<stop  offset="0" style="stop-color:#000002"/>
	<stop  offset="1" style="stop-color:#424242"/>
</linearGradient>
<path opacity="0.85" fill-rule="evenodd" clip-rule="evenodd" fill="url(#SVGID_6_)" d="M84.9360352,94.7143555
	c-20.4023438,15.0068359-49.1035156,10.6337891-64.1083984-9.7802734c-2.421875-3.2929688-4.3408203-6.8125-5.7646484-10.4570313
	c10.0878906-8.5527344,25.4736328-13.9921875,42.7001953-13.9433594
	c17.2324219,0.0498047,32.5869141,5.5791016,42.6240234,14.1894531
	C97.3120117,82.4487305,92.1264648,89.4438477,84.9360352,94.7143555z"/>
<linearGradient id="SVGID_7_" gradientUnits="userSpaceOnUse" x1="207.0209961" y1="871.9194336" x2="207.0209961" y2="770.918457" gradientTransform="matrix(-1 -0.0029 0.0029 -1 262.4151611 879.7940674)">
	<stop  offset="0" style="stop-color:#6BCBDC"/>
	<stop  offset="0.37" style="stop-color:#8ED8F8"/>
	<stop  offset="0.68" style="stop-color:#0095DA"/>
	<stop  offset="1" style="stop-color:#007DC5"/>
</linearGradient>
<path fill-rule="evenodd" clip-rule="evenodd" fill="url(#SVGID_7_)" d="M87.6977539,98.456543
	c-22.4833984,16.5214844-54.0888672,11.703125-70.609375-10.7685547
	C0.5620117,65.2250977,5.3911133,33.6069336,27.8686523,17.0922852
	C50.3334961,0.5688477,81.9389648,5.3959961,98.4594727,27.8666992
	C114.9848633,50.3305664,110.1557617,81.9360352,87.6977539,98.456543L87.6977539,98.456543z M87.3198242,97.9672852
	c22.2080078-16.3261719,26.9755859-47.5537109,10.6552734-69.7548828
	C81.6499023,6.0151367,50.4223633,1.2504883,28.2211914,17.5756836C6.019043,33.8901367,1.2583008,65.1293945,17.5717773,87.3178711
	C33.9038086,109.527832,65.1245117,114.2954102,87.3198242,97.9672852z"/>
<linearGradient id="SVGID_8_" gradientUnits="userSpaceOnUse" x1="206.2504883" y1="624.2348633" x2="206.2504883" y2="730.0553589" gradientTransform="matrix(1 0.0029 -0.0029 1 -146.1075745 -509.8829651)">
	<stop  offset="0.139394" style="stop-color:#000002"/>
	<stop  offset="1" style="stop-color:#939291"/>
</linearGradient>
<path fill-rule="evenodd" clip-rule="evenodd" fill="url(#SVGID_8_)" d="M23.9311523,130.4116211
	c25.7080078-18.9052734,61.8671875-13.3779297,80.7714844,12.3232422
	c18.8925781,25.7148438,13.3789063,61.8701172-12.3232422,80.765625
	c-25.7138672,18.8994141-61.8730469,13.3837891-80.7714844-12.3300781
	C-7.2915039,185.472168-1.7709961,149.3120117,23.9311523,130.4116211z"/>
<path fill-rule="evenodd" clip-rule="evenodd" fill="#232626" d="M24.3989258,131.0356445
	c25.3603516-18.6376953,61.0244141-13.1972656,79.6738281,12.1621094
	c18.6494141,25.3554688,13.1972656,61.0322266-12.1621094,79.6816406
	c-25.359375,18.6464844-61.0302734,13.1943359-79.6728516-12.1621094
	C-6.4116211,185.3618164-0.9663086,149.6879883,24.3989258,131.0356445z"/>
<path fill-rule="evenodd" clip-rule="evenodd" fill="#0AF2EB" d="M26.8696289,134.4008789
	c23.4980469-17.2744141,56.5625-12.2333984,73.8378906,11.2626953
	c17.2861328,23.5136719,12.2392578,56.5722656-11.2666016,73.8466797
	c-23.4990234,17.2753906-56.5634766,12.2333984-73.8378906-11.2714844
	C-1.6831055,184.7407227,3.3696289,151.6889648,26.8696289,134.4008789L26.8696289,134.4008789z M29.9956055,138.6508789
	c-21.1611328,15.5507813-25.6992188,45.3095703-10.1455078,66.4667969
	c15.546875,21.1494141,45.3095703,25.6962891,66.4707031,10.1494141
	c21.1552734-15.5625,25.6923828-45.3251953,10.1386719-66.4619141
	C80.9067383,127.644043,51.1508789,123.0922852,29.9956055,138.6508789z"/>
<linearGradient id="SVGID_9_" gradientUnits="userSpaceOnUse" x1="206.2524414" y1="736.4331055" x2="206.2524414" y2="636.0610352" gradientTransform="matrix(1 0.0029 -0.0029 1 -146.1075745 -509.8829651)">
	<stop  offset="0.0666667" style="stop-color:#222224"/>
	<stop  offset="1" style="stop-color:#000002"/>
</linearGradient>
<path fill-rule="evenodd" clip-rule="evenodd" fill="url(#SVGID_9_)" d="M28.4262695,136.534668
	c22.3359375-16.4189453,53.7402344-11.6347656,70.1572266,10.6982422
	c16.4169922,22.3359375,11.6240234,53.7304688-10.7050781,70.1601563
	c-22.3310547,16.4179688-53.734375,11.625-70.1513672-10.7119141
	C1.3100586,184.3520508,6.1088867,152.9506836,28.4262695,136.534668z"/>
<linearGradient id="SVGID_10_" gradientUnits="userSpaceOnUse" x1="207.9770508" y1="710.9487305" x2="204.0036163" y2="654.1260986" gradientTransform="matrix(1 0.0029 -0.0029 1 -146.1075745 -509.8829651)">
	<stop  offset="0" style="stop-color:#000002"/>
	<stop  offset="0.88" style="stop-color:#939291"/>
	<stop  offset="1" style="stop-color:#B3B2B3"/>
</linearGradient>
<path fill-rule="evenodd" clip-rule="evenodd" fill="url(#SVGID_10_)" d="M30.6459961,139.5327148
	c20.6650391-15.1982422,49.7314453-10.7509766,64.9257813,9.9140625
	c15.1943359,20.6572266,10.7578125,49.7353516-9.9072266,64.9355469
	c-20.6660156,15.1884766-49.7382813,10.7568359-64.9326172-9.9121094
	C5.5375977,183.8022461,9.9741211,154.7358398,30.6459961,139.5327148z"/>
<path fill-rule="evenodd" clip-rule="evenodd" fill="#3A3C3D" d="M30.9926758,140.0161133
	c20.4023438-15.0068359,49.1035156-10.6337891,64.1083984,9.7802734c15,20.40625,10.6240234,49.1123047-9.7841797,64.109375
	c-20.4013672,15-49.1152344,10.6240234-64.1074219-9.7851563C6.2094727,183.7182617,10.5854492,155.012207,30.9926758,140.0161133z"
	/>
<linearGradient id="SVGID_11_" gradientUnits="userSpaceOnUse" x1="212.0473633" y1="716.5356445" x2="212.0473633" y2="655.1274414" gradientTransform="matrix(1 0.0029 -0.0029 1 -146.1075745 -509.8829651)">
	<stop  offset="0" style="stop-color:#939291"/>
	<stop  offset="0.860606" style="stop-color:#000002"/>
</linearGradient>
<polygon fill-rule="evenodd" clip-rule="evenodd" fill="url(#SVGID_11_)" points="40.8930664,145.7924805 87.1459961,176.581543 
	40.6674805,207.199707 "/>
<linearGradient id="SVGID_12_" gradientUnits="userSpaceOnUse" x1="211.9125977" y1="715.534668" x2="211.9125977" y2="655.9106445" gradientTransform="matrix(1 0.0029 -0.0029 1 -146.1075745 -509.8829651)">
	<stop  offset="0.0545455" style="stop-color:#222224"/>
	<stop  offset="1" style="stop-color:#000002"/>
</linearGradient>
<polygon fill-rule="evenodd" clip-rule="evenodd" fill="url(#SVGID_12_)" points="41.3920898,146.5766602 86.3286133,176.5180664 
	41.2202148,206.2006836 "/>
<polygon fill-rule="evenodd" clip-rule="evenodd" fill="#0AF2EB" points="43.6206055,150.8198242 83.0551758,176.5083008 
	43.4731445,201.9624023 "/>
<linearGradient id="SVGID_13_" gradientUnits="userSpaceOnUse" x1="206.2514648" y1="683.4819336" x2="206.2514648" y2="640.3813477" gradientTransform="matrix(1 0.0029 -0.0029 1 -146.1075745 -509.8829651)">
	<stop  offset="0" style="stop-color:#000002"/>
	<stop  offset="1" style="stop-color:#424242"/>
</linearGradient>
<path opacity="0.85" fill-rule="evenodd" clip-rule="evenodd" fill="url(#SVGID_13_)" d="M30.9926758,140.0161133
	c20.4023438-15.0068359,49.1035156-10.6337891,64.1083984,9.7802734c2.421875,3.2929688,4.3408203,6.8125,5.7646484,10.4570313
	c-10.0878906,8.5527344-25.4736328,13.9921875-42.7001953,13.9433594
	c-17.2324219-0.0498047-32.5869141-5.5791016-42.6240234-14.1894531
	C18.6166992,152.2817383,23.8022461,145.2866211,30.9926758,140.0161133z"/>
<linearGradient id="SVGID_14_" gradientUnits="userSpaceOnUse" x1="206.2514648" y1="736.7407227" x2="206.2514648" y2="635.7397461" gradientTransform="matrix(1 0.0029 -0.0029 1 -146.1075745 -509.8829651)">
	<stop  offset="0" style="stop-color:#6BCBDC"/>
	<stop  offset="0.37" style="stop-color:#8ED8F8"/>
	<stop  offset="0.68" style="stop-color:#0095DA"/>
	<stop  offset="1" style="stop-color:#007DC5"/>
</linearGradient>
<path fill-rule="evenodd" clip-rule="evenodd" fill="url(#SVGID_14_)" d="M28.230957,136.2739258
	c22.4833984-16.5214844,54.0888672-11.703125,70.609375,10.7685547
	c16.5263672,22.4628906,11.6972656,54.0810547-10.7802734,70.5957031
	c-22.4648438,16.5234375-54.0703125,11.6962891-70.5908203-10.7744141
	C0.9438477,184.3999023,5.7729492,152.7944336,28.230957,136.2739258L28.230957,136.2739258z M28.6088867,136.7631836
	c-22.2080078,16.3261719-26.9755859,47.5537109-10.6552734,69.7548828
	c16.3251953,22.1972656,47.5527344,26.9619141,69.7539063,10.6367188
	c22.2021484-16.3144531,26.9628906-47.5537109,10.6494141-69.7421875
	C82.0249023,125.2026367,50.8041992,120.4350586,28.6088867,136.7631836z"/>
</svg>
